<svg width="28" height="28" viewBox="0 0 28 28" fill="none" xmlns="http://www.w3.org/2000/svg">
<path fill-rule="evenodd" clip-rule="evenodd" d="M27 14C27 21.1797 21.1797 27 14 27C6.8203 27 1 21.1797 1 14C1 6.8203 6.8203 1 14 1C21.1797 1 27 6.8203 27 14ZM15.8259 11.5159L14 7.81567L12.1741 11.5159L8.09094 12.1092L11.0455 14.9893L10.3482 19.0559L14 17.1355L17.6519 19.0559L16.9546 14.9893L19.9091 12.1092L15.8259 11.5159Z" fill="#31C1EE"/>
<path d="M14 7.81567L14.6726 7.48379L14 6.1208L13.3275 7.48379L14 7.81567ZM15.8259 11.5159L15.1534 11.8478L15.3279 12.2015L15.7181 12.2582L15.8259 11.5159ZM12.1741 11.5159L12.282 12.2582L12.6722 12.2015L12.8467 11.8478L12.1741 11.5159ZM8.09094 12.1092L7.9831 11.367L6.47925 11.5855L7.56742 12.6463L8.09094 12.1092ZM11.0455 14.9893L11.7847 15.1161L11.8513 14.7275L11.569 14.4523L11.0455 14.9893ZM10.3482 19.0559L9.609 18.9292L9.35216 20.4271L10.6973 19.7198L10.3482 19.0559ZM14 17.1355L14.3491 16.4717L14 16.2881L13.6509 16.4717L14 17.1355ZM17.6519 19.0559L17.3028 19.7198L18.6479 20.4271L18.3911 18.9292L17.6519 19.0559ZM16.9546 14.9893L16.4311 14.4523L16.1487 14.7275L16.2154 15.1161L16.9546 14.9893ZM19.9091 12.1092L20.4326 12.6463L21.5208 11.5855L20.017 11.367L19.9091 12.1092ZM14 27.75C21.5939 27.75 27.75 21.5939 27.75 14H26.25C26.25 20.7655 20.7655 26.25 14 26.25V27.75ZM0.25 14C0.25 21.5939 6.40608 27.75 14 27.75V26.25C7.23451 26.25 1.75 20.7655 1.75 14H0.25ZM14 0.25C6.40608 0.25 0.25 6.40608 0.25 14H1.75C1.75 7.23451 7.23451 1.75 14 1.75V0.25ZM27.75 14C27.75 6.40608 21.5939 0.25 14 0.25V1.75C20.7655 1.75 26.25 7.23451 26.25 14H27.75ZM13.3275 8.14756L15.1534 11.8478L16.4985 11.1841L14.6726 7.48379L13.3275 8.14756ZM12.8467 11.8478L14.6726 8.14756L13.3275 7.48379L11.5016 11.1841L12.8467 11.8478ZM8.19878 12.8514L12.282 12.2582L12.0663 10.7737L7.9831 11.367L8.19878 12.8514ZM11.569 14.4523L8.61446 11.5722L7.56742 12.6463L10.522 15.5264L11.569 14.4523ZM11.0874 19.1827L11.7847 15.1161L10.3063 14.8626L9.609 18.9292L11.0874 19.1827ZM13.6509 16.4717L9.99913 18.3921L10.6973 19.7198L14.3491 17.7993L13.6509 16.4717ZM18.0009 18.3921L14.3491 16.4717L13.6509 17.7993L17.3028 19.7198L18.0009 18.3921ZM16.2154 15.1161L16.9126 19.1827L18.3911 18.9292L17.6938 14.8626L16.2154 15.1161ZM19.3856 11.5722L16.4311 14.4523L17.4781 15.5264L20.4326 12.6463L19.3856 11.5722ZM15.7181 12.2582L19.8013 12.8514L20.017 11.367L15.9338 10.7737L15.7181 12.2582Z" fill="#31C1EE"/>
<path d="M14 7.81567L15.8259 11.5159L19.9091 12.1092L16.9546 14.9893L17.6519 19.0559L14 17.1355L10.3482 19.0559L11.0455 14.9893L8.09094 12.1092L12.1741 11.5159L14 7.81567Z" stroke="white" stroke-width="1.5" stroke-miterlimit="10" stroke-linecap="square"/>
</svg>
