<?xml version="1.0" encoding="iso-8859-1"?>
<!-- Generator: Adobe Illustrator 26.5.0, SVG Export Plug-In . SVG Version: 6.00 Build 0)  -->
<svg version="1.1" id="Layer_1" xmlns="http://www.w3.org/2000/svg" xmlns:xlink="http://www.w3.org/1999/xlink" x="0px" y="0px"
	 viewBox="0 0 384 384" style="enable-background:new 0 0 384 384;" xml:space="preserve">
<style type="text/css">
	.st0{fill:#FFFFFF;}
	.st1{fill:#39BEEB;}
	.st2{fill:none;stroke:#FFFFFF;stroke-width:1.5;stroke-linecap:square;stroke-miterlimit:10;}
	.st3{fill:#39BEEB;stroke:#39BEEB;stroke-width:1.5;stroke-linecap:square;stroke-miterlimit:10;}
</style>
<g>
	<path class="st1" d="M149.03,384c-3.23-0.97-6.54-1.75-9.68-2.95c-10.56-4.04-35.53-28.94-39.65-39.51
		c-5.13-13.15-3.98-26.39,0.91-39.14c13.34-34.74,37.5-58.41,73.64-68.53c18.51-5.19,35.39-1.77,48.79,13.35
		c3.62,4.08,7.57,7.88,11.58,11.58c13.16,12.12,17.1,27.38,12.9,44.03c-10.53,41.78-37.37,68.13-78.66,79.93
		c-1.68,0.48-3.39,0.84-5.08,1.25C158.86,384,153.94,384,149.03,384z M207.3,250.21c-5.61-5.05-16.07-6.99-25.74-5.26
		c-14.62,2.62-27.34,9.22-38.51,18.71c-17.84,15.17-31.16,33.19-33.76,57.36c-0.83,7.68,0.49,14.99,5.48,22.11
		c0.71-5.12,0.91-9.47,1.95-13.61c7.68-30.64,26.81-52.43,53.45-68.25c3.72-2.21,7.39-1.24,9.23,2c1.84,3.25,0.75,6.66-3.17,8.87
		c-11.81,6.66-21.89,15.35-30.25,25.97c-10.86,13.78-18.55,28.89-18.27,47.02c0.2,12.82,7.97,23.19,20.12,25.39
		c5.89,1.07,12.35,1.09,18.19-0.14c23.48-4.92,41.03-19.01,54.91-37.91c9.8-13.34,16.29-28,15.06-45.15
		c-0.82-11.48-7.62-20.42-18.82-22.89c-5.73-1.26-11.87-0.67-17.82-0.9c-3.62-0.14-6.05-2.3-6.3-5.65
		c-0.25-3.37,1.81-6.02,5.32-6.58C201.21,250.83,204.06,250.59,207.3,250.21z"/>
	<path class="st1" d="M248.39,96.81c18.45,0.37,34.45,7.46,48.93,18.3c19.97,14.96,34.74,33.76,41.3,58.26
		c2.47,9.2,3.08,18.5,0.71,27.89c-1.79,7.07-5.2,13.14-10.3,18.29c-5.19,5.24-10.57,10.29-15.6,15.68
		c-11.77,12.61-26.46,15.89-42.65,12.75c-29.6-5.74-51.06-23.47-67.6-47.8c-7.76-11.41-12.84-23.98-14.29-37.84
		c-1.47-14.02,1.64-26.52,12.01-36.69c5.26-5.16,10.58-10.29,15.62-15.66C225.18,100.75,235.86,96.65,248.39,96.81z M249.89,109.21
		c-15.98,0-26.58,7.21-29.08,19.87c-1.18,5.98-1.15,12.59,0.03,18.58c3.98,20.23,15.57,36.06,30.84,49.32
		c13.24,11.49,28.15,19.46,46.06,20.88c14.76,1.16,26.67-6.84,29.7-20.54c1.56-7.06,0.9-14.13-0.98-21.04
		c-5.8-21.29-18.74-37.58-35.99-50.72C277.96,116.03,264.08,109.83,249.89,109.21z M299.66,230.65
		c-25.54-1.58-45.61-13.18-62.69-30.33c-17.05-17.11-28.67-37.13-30.37-62.1c-1.43,2.06-2.7,4.11-3.5,6.33
		c-2.95,8.11-2.55,16.42-0.34,24.54c6.5,23.94,21.52,41.6,41.82,55.05c11.91,7.89,24.87,12.96,39.51,12.15
		C289.55,235.98,294.68,234.6,299.66,230.65z"/>
	<path class="st1" d="M140.5,1.21c12.4,0.29,22.98,4.3,31.58,13.38c5.26,5.55,10.78,10.85,16.2,16.25
		c9.94,9.9,13.26,22.15,11.62,35.64c-3.6,29.52-20.1,51.28-42.96,68.8c-13.2,10.11-27.97,16.86-44.8,18.26
		c-13.27,1.11-25.16-2.07-34.85-11.68c-5.62-5.58-11.15-11.25-16.82-16.78c-10.64-10.38-13.76-23.25-12.12-37.49
		C52.87,48.22,91.71,10,127.59,3.01C131.85,2.18,136.19,1.8,140.5,1.21z M181.66,43.18c-0.09,1.86-0.11,3.72-0.31,5.56
		c-0.22,2.03-0.48,4.08-0.96,6.05c-0.91,3.71-3.72,5.56-7.28,5.01c-3.36-0.52-5.34-3.39-4.94-7.25c0.24-2.31,0.62-4.6,0.86-6.9
		c1.58-15.15-6.2-27.76-19.87-30.46c-5.98-1.18-12.54-0.94-18.59,0.1c-14.62,2.51-27.05,9.92-38.01,19.64
		C75.57,49.98,63.11,67.71,60.61,91.11c-1.62,15.17,6.25,27.79,20.27,30.54c5.6,1.1,11.74,0.9,17.4-0.07
		c16.08-2.74,29.71-10.83,41.16-22.09c6.94-6.83,12.65-14.92,18.8-22.54c2.63-3.26,5.83-4.26,8.86-2.33c3,1.9,3.97,5.33,1.92,8.57
		c-15.58,24.63-36.47,42.49-65.09,50.16c-4.61,1.23-9.47,1.54-14.68,2.35c8.09,5.93,17.05,6.86,25.69,4.85
		c36.64-8.52,60.02-31.73,71.09-67.26C189.2,63.11,188.83,52.52,181.66,43.18z"/>
	<path class="st1" d="M166.73,350.35c-0.45-0.08-1.95-0.2-3.37-0.63c-2.26-0.68-4.13-0.92-6.35,0.71c-2.42,1.77-5.31,1.17-7.4-1.1
		c-2.07-2.25-2-4.79-0.75-7.58c0.67-1.51,1.07-3.49,0.72-5.06c-1.63-7.36-0.02-13.78,5.01-19.32c2.69-2.96,6.47-3.29,9.1-1.02
		c2.55,2.22,2.77,5.63,0.55,8.82c-3.73,5.37-3.72,9.42,0.04,11.7c3.68,2.24,9.06,0.48,11.6-4.49c1.2-2.35,1.62-5.49,1.3-8.13
		c-0.54-4.42-2.18-8.7-2.97-13.11c-2.88-16.1,12.14-30.06,27.91-26.16c1.22,0.3,2.87,0.02,3.97-0.61c3.01-1.74,5.77-1.72,8.19,0.75
		c2.28,2.33,2.28,4.97,0.7,7.87c-0.67,1.23-0.99,3.02-0.66,4.37c1.76,7.32,0.2,13.78-4.61,19.47c-2.78,3.28-6.53,3.77-9.37,1.4
		c-2.68-2.24-2.86-5.81-0.45-9.14c0.4-0.55,0.92-1.03,1.25-1.62c1.71-3.11,2.15-6.24-0.49-9.05c-2.16-2.3-6.38-2.2-9.4,0.02
		c-4.52,3.33-5.6,7.72-4.11,14.28c1.21,5.27,2.63,10.64,2.71,15.98C190,339.84,178.91,350.32,166.73,350.35z"/>
	<path class="st1" d="M282.94,167.69c-3.27,0.88-6.54,1.76-9.81,2.65c-12.21,3.31-22.33,0.02-28.52-9.33
		c-3.48-5.26-4.61-10.91-3.01-17.15c0.36-1.42-0.08-3.28-0.73-4.67c-1.37-2.92-1.45-5.57,0.91-7.87c2.36-2.29,5-2.13,7.89-0.72
		c1.36,0.66,3.25,1.01,4.69,0.64c7.22-1.83,13.49-0.03,19.07,4.57c3.26,2.69,3.78,6.63,1.49,9.37c-2.32,2.78-5.63,2.94-9.11,0.54
		c-1.22-0.84-2.54-2.12-3.83-2.13c-2.27-0.02-5.14,0.1-6.63,1.43c-1.34,1.19-1.87,4.23-1.5,6.21c1.05,5.63,7.33,9.02,13.38,7.67
		c4.64-1.03,9.21-2.46,13.89-3.22c14.92-2.42,28.61,12.46,25.26,27.14c-0.36,1.6-0.1,3.64,0.62,5.11c1.43,2.95,1.45,5.56-0.86,7.87
		c-2.31,2.31-4.92,2.36-7.86,0.85c-1.35-0.69-3.25-0.99-4.71-0.65c-7.36,1.73-13.78-0.03-19.4-4.87c-3.14-2.7-3.54-6.23-1.3-9.05
		c2.26-2.84,5.7-3.11,9.08-0.71c0.78,0.55,1.47,1.25,2.31,1.66c2.89,1.4,5.9,1.74,8.34-0.69c2.59-2.57,2.38-5.81,0.59-8.66
		C290.93,170.04,287.69,167.66,282.94,167.69z"/>
	<path class="st1" d="M130.36,35.28c0.49,0.09,2.08,0.64,3.68,0.64c1.83,0,3.78-0.17,5.46-0.82c2.82-1.1,5.33-1.15,7.52,1.07
		c2.2,2.21,2.12,4.71,1.01,7.53c-0.66,1.68-1.15,3.77-0.76,5.45c1.75,7.45-0.32,13.75-5.21,19.28c-2.44,2.76-6.28,3.03-8.82,0.95
		c-2.74-2.26-3.21-5.6-0.83-8.72c2.47-3.25,4.56-6.78,1.5-10.24c-1.41-1.59-4.81-2.29-7.15-2.01c-3.83,0.46-7.62,5.25-7.44,9.17
		c0.16,3.61,1.02,7.25,2.03,10.74c2.71,9.38,2.21,18.07-4.77,25.56c-5.96,6.4-13.12,8.92-21.82,6.77c-1.32-0.32-3.07,0.09-4.32,0.74
		c-2.91,1.51-5.53,1.5-7.86-0.82c-2.33-2.32-2.33-4.93-0.86-7.86c0.68-1.36,1.03-3.25,0.68-4.7c-1.77-7.37,0.03-13.78,4.83-19.41
		c2.69-3.16,6.24-3.54,9.04-1.3c2.89,2.31,3.16,5.61,0.73,9.07c-0.47,0.67-1.06,1.26-1.48,1.95c-1.86,3.07-1.61,7.13,0.77,9
		c2.97,2.35,6.14,1.93,9.08-0.1c4.43-3.06,5.64-7.54,4.49-13.39c-1.22-6.22-2.95-12.57-2.7-18.79
		C107.6,44.54,118.72,35.21,130.36,35.28z"/>
</g>
</svg>
