<?xml version="1.0" encoding="iso-8859-1"?>
<!-- Generator: Adobe Illustrator 26.5.0, SVG Export Plug-In . SVG Version: 6.00 Build 0)  -->
<svg version="1.1" id="Layer_1" xmlns="http://www.w3.org/2000/svg" xmlns:xlink="http://www.w3.org/1999/xlink" x="0px" y="0px"
	 viewBox="0 0 384 384" style="enable-background:new 0 0 384 384;" xml:space="preserve">
<style type="text/css">
	.st0{fill:#FFFFFF;}
	.st1{fill:#39BEEB;}
	.st2{fill:none;stroke:#FFFFFF;stroke-width:1.5;stroke-linecap:square;stroke-miterlimit:10;}
	.st3{fill:#39BEEB;stroke:#39BEEB;stroke-width:1.5;stroke-linecap:square;stroke-miterlimit:10;}
	.st4{fill:#CCC8E5;}
</style>
<g>
	<path class="st4" d="M177.66,0.6c1.84,3.97,3.71,7.56,3.69,12.48c-0.29,66.14-0.16,132.28-0.23,198.42
		c-0.01,11.64-1.2,12.82-12.76,12.85c-43.45,0.09-86.9,0.04-130.34,0.04c0-74.59,0-149.18,0-223.78C84.56,0.6,131.11,0.6,177.66,0.6
		z M62.73,199.29c32.18,0,62.83,0,93.43,0c2.14-54.83,1.36-159.59-1.17-173.61c-30.75,0-61.39,0-92.26,0
		C62.73,83.77,62.73,141.25,62.73,199.29z"/>
	<path class="st4" d="M359.2,0.6c0,36.05,0,72.1,0,108.15c0,2.33,0.02,4.65,0,6.98c-0.15,13.44-0.84,14.17-14.97,14.22
		c-20.9,0.07-41.8,0.02-62.7,0.02c-19.74,0-39.49-0.28-59.22,0.08c-19.9,0.36-20.49-0.17-20.31-19.55
		c0.35-36.63,0.1-73.27,0.1-109.9C254.47,0.6,306.83,0.6,359.2,0.6z M226.83,104.9c36.84,0,72.11,0,107.93,0
		c0-26.12,0-51.64-0.02-77.16c0-0.5-0.29-1.06-0.59-1.49c-0.32-0.46-0.82-0.79-0.59-0.58c-35.93,0-71.2,0-106.73,0
		C226.83,52.29,226.83,78.31,226.83,104.9z"/>
	<path class="st4" d="M38.01,248.85c47.5,0,94.99,0,143.14,0c0,38.82,0.07,76.55-0.05,114.28c-0.03,9.59-2.19,11.54-12.36,11.56
		c-43.58,0.08-87.15,0.03-130.73,0.03C38.01,332.77,38.01,290.81,38.01,248.85z M63.04,273.61c0,26.39,0,51.25,0,76.64
		c30.72,0,60.85,0,90.98-0.02c0.5,0,1.06-0.27,1.49-0.57c0.46-0.32,0.8-0.81,0.6-0.6c0-25.49,0-50.35,0-75.45
		C124.89,273.61,94.26,273.61,63.04,273.61z"/>
	<path class="st4" d="M355.18,374.72c-48.76,0-96.9,0.06-145.04-0.05c-9.56-0.02-11.49-2.19-11.5-12.42
		c-0.06-66.33-0.06-132.66,0-198.99c0.01-10.07,2.02-12.26,11.64-12.28c48.13-0.1,96.25-0.05,144.9-0.05
		C355.18,225.38,355.18,299.12,355.18,374.72z M330.66,349.93c0-58.21,0-116.1,0-174.51c-35.41,0-70.22,0-105.02,0.03
		c-0.49,0-1.05,0.32-1.47,0.63c-0.44,0.33-0.76,0.83-0.52,0.56c0,58.17,0,115.63,0,173.3C259.56,349.93,294.86,349.93,330.66,349.93
		z"/>
</g>
</svg>
