<?xml version="1.0" encoding="iso-8859-1"?>
<!-- Generator: Adobe Illustrator 26.5.0, SVG Export Plug-In . SVG Version: 6.00 Build 0)  -->
<svg version="1.1" id="Layer_1" xmlns="http://www.w3.org/2000/svg" xmlns:xlink="http://www.w3.org/1999/xlink" x="0px" y="0px"
	 viewBox="0 0 384 384" style="enable-background:new 0 0 384 384;" xml:space="preserve">
<style type="text/css">
	.st0{fill:#FFFFFF;}
	.st1{fill:#39BEEB;}
	.st2{fill:none;stroke:#FFFFFF;stroke-width:1.5;stroke-linecap:square;stroke-miterlimit:10;}
	.st3{fill:#39BEEB;stroke:#39BEEB;stroke-width:1.5;stroke-linecap:square;stroke-miterlimit:10;}
	.st4{fill:#CCC8E5;}
</style>
<path class="st1" d="M125.89,251.81c0,8.67,0,17.26,0,25.92c-2.01,0-4.03,0.19-5.99-0.05c-1.9-0.24-3.78-0.17-5.67-0.17
	c-14.4-0.03-28.8-0.01-43.2-0.01c-4,0.47-8.01,0.15-12.02,0.24c-2.19,0.49-4.41,0.17-6.62,0.22c-0.8,0.02-1.61,0.16-2.44-0.17
	c-0.69-0.28-1.52,0.08-2.3-0.26c-0.42-0.18-0.98-0.18-1.45-0.23c-1.41-0.14-2.69-0.68-4-1.1c-1.27-0.41-2.46-1.03-3.58-1.8
	c-1.41-0.97-2.33-2.2-2.99-3.79c-0.74-1.77-0.95-3.67-1.6-5.46c-0.16-0.45-0.07-0.97-0.26-1.45c-0.19-0.49-0.17-1.05-0.27-1.57
	c-0.1-0.52-0.32-1.02-0.26-1.57c-0.5-0.39,0.06-1.11-0.46-1.49c0.04-1.05-0.45-2-0.5-3.04c-0.02-0.4-0.15-0.83-0.27-1.21
	c-0.23-0.77-0.31-1.56-0.42-2.34c-0.13-0.97,0.33-1.91,0.24-2.9c-0.08-0.95-0.19-1.96,0.02-2.87c0.32-1.38,0.19-2.74,0.19-4.11
	c0.01-62.76,0.01-125.52,0.02-188.28c0-1.42-0.36-2.79-0.27-4.22c0.09-1.39,0.04-2.8,0.01-4.2c-0.03-1.4,0.28-2.76,0.5-4.12
	c0.22-1.33,0.84-2.54,1.47-3.7c0.8-1.47,1.73-2.84,2.83-4.13c0.74-0.86,1.58-1.58,2.42-2.31c1.19-1.03,2.54-1.88,3.98-2.53
	c1.25-0.56,2.51-1.18,3.93-1.22c0.56-0.42,1.21-0.24,1.82-0.23c1.49,0.02,2.96-0.45,4.46-0.25c3.68,0.48,7.37,0.17,11.06,0.22
	c3.76,0.06,7.52,0.01,11.28,0.01c3.72,0,7.44,0,11.16,0c3.76,0,7.52,0,11.28,0c3.72,0,7.44,0,11.16,0c3.76,0,7.52,0,11.28,0
	c3.72,0,7.44,0,11.16,0c74.64,0,149.28,0,223.92,0.01c1.65,0,3.31,0.02,4.93,0.28c0.98,0.15,1.99,0.26,2.97,0.62
	c0.78,0.29,1.44,0.68,2.02,1.2c0.92,0.82,1.84,1.68,2.63,2.63c1.15,1.38,2.4,2.69,3.34,4.25c0.04,0.07,0.1,0.13,0.16,0.17
	c0.99,0.7,1.05,1.7,1.05,2.81c-0.02,48.72-0.01,97.44-0.01,146.16c0,0.39,0,0.79,0,1.23c-0.33,0-0.61,0-0.88,0c-7.6,0-15.2,0-22.8,0
	c-0.28,0-0.58,0.06-0.83-0.02c-0.18-0.06-0.39-0.29-0.43-0.47c-0.07-0.3-0.02-0.64-0.02-0.96c0-13.48,0-26.96,0-40.49
	c-95.9,0-191.8,0-287.7,0c-0.22,0.46,0.11,0.98-0.23,1.47c-0.25,0.36-0.03,0.87-0.27,1.33c-0.21,0.4-0.05,0.95-0.24,1.45
	c-0.23,0.63-0.09,1.4-0.31,2.04c-0.2,0.57-0.17,1.17-0.41,1.75c-0.22,0.53-0.1,1.19-0.24,1.81c-0.23,0.97-0.19,2.01-0.28,3.01
	c-0.06,0.65-0.19,1.29-0.23,1.94c-0.04,0.68,0.14,1.4-0.04,2.03c-0.38,1.33-0.18,2.66-0.2,3.99c-0.04,3.64-0.01,7.28-0.01,10.92
	c0.49,2.35,0.17,4.73,0.23,7.1c0.06,2.4,0.01,4.8,0.01,7.2c0,2.4,0.19,4.82-0.05,7.19c-0.28,2.74-0.12,5.46-0.18,8.19
	c-0.06,2.8-0.01,5.6-0.01,8.4c0,2.76-0.13,5.53,0.04,8.28c0.12,1.97,0.18,3.93,0.2,5.9c0.42,1.14,0.1,2.34,0.26,3.5
	c0.26,1.94,0.57,3.87,1.23,5.73c0.56,1.57,1.26,3.11,2.16,4.5c1.04,1.6,2.29,3.1,3.79,4.31c1.61,1.3,3.39,2.34,5.29,3.14
	c1.13,0.48,2.32,0.81,3.51,1.08c1.39,0.32,2.8,0.5,4.24,0.52c0.8,0.01,1.64,0.4,2.41,0.17c1.02-0.3,2.02-0.2,3.03-0.2
	C97.72,251.8,111.76,251.81,125.89,251.81z M346.22,53.33c-4.14,0-8.18,0-12.22,0c-4.04,0-8.08,0-12.12,0c-4.04,0-8.08,0-12.12,0
	c-4.04,0-8.08,0-12.12,0c-4.08,0-8.16,0-12.24,0c-4.04,0-8.08,0-12.12,0c-4.04,0-8.08,0-12.12,0c-4.04,0-8.08,0-12.12,0
	c-4.04,0-8.08,0-12.12,0s-8.08,0-12.12,0s-8.08,0-12.12,0s-8.08,0-12.12,0s-8.08,0-12.12,0s-8.08,0-12.12,0c-4.08,0-8.16,0-12.24,0
	c-4.04,0-8.08,0-12.12,0c-4.04,0-8.08,0-12.12,0s-8.08-0.04-12.12,0.01c-4.01,0.05-8.02-0.26-12.02,0.23c-12,0-24,0.01-36-0.01
	c-1.3,0-2.56,0.43-3.86,0.25c-0.04-0.01-0.1-0.02-0.12,0c-0.36,0.33-0.81,0.2-1.22,0.24c-0.41,0.05-0.82,0.14-1.22,0.24
	c-0.87,0.2-1.75,0.42-2.62,0.64c-1.63,0.41-3.16,1.1-4.56,2.02c-1.02,0.67-2,1.46-2.86,2.33c-0.42,0.43-0.79,0.95-1.21,1.4
	c-0.1,0.11-0.13,0.27-0.22,0.39c-0.71,0.92-1.16,1.99-1.68,3.02c-0.91,1.79-1.23,3.75-1.64,5.67c-0.13,0.62-0.22,1.29-0.26,1.93
	c-0.05,0.65-0.14,1.3-0.22,1.94c-0.16,1.36,0.1,2.75-0.28,4.1c0.14,5.57-0.42,11.13-0.24,16.7c0.01,0.16,0,0.32,0,0.48
	c0,0.12-0.05,0.27,0.01,0.35c0.32,0.5,0.26,1.05,0.22,1.58c-0.05,0.56,0.25,1.06,0.23,1.58c-0.05,1.18,0.32,2.29,0.55,3.39
	c0.36,1.73,0.96,3.42,1.76,5.02c0.35,0.7,0.69,1.41,1.11,2.06c0.62,0.96,1.2,1.95,2.02,2.76c0.57,0.56,1.15,1.12,1.7,1.7
	c0.99,1.04,2.19,1.77,3.43,2.45c1.54,0.84,3.16,1.43,4.87,1.87c1.3,0.34,2.61,0.64,3.91,0.64c89.27,0.03,178.55,0.03,267.82,0.03
	c0.35,0,0.7,0,1.07,0C346.22,96.66,346.22,75.04,346.22,53.33z"/>
<path class="st1" d="M192.9,298.89c0-8.47,0-16.82,0-25.21c20.93,0,41.84,0,62.82,0c0-21.13,0-42.23,0-63.36c8.59,0,17.1,0,25.69,0
	c-0.07,1.22,0.39,2.41,0.27,3.67c-0.06,0.63-0.01,1.28-0.01,1.92c0,1.88,0.04,3.76-0.01,5.64c-0.05,1.86,0.36,3.68,0.27,5.54
	c-0.09,1.88-0.02,3.76-0.02,5.64c0,1.88,0,3.76,0,5.64c0,1.92,0,3.84,0,5.76c0,1.88,0,3.76,0,5.64c0,1.88,0,3.76,0,5.64
	s0,3.76,0,5.64c0,1.88,0,3.76,0,5.64c0,1.88,0,3.76,0,5.72c20.94,0,41.87,0,62.88,0c0,0.31,0,0.54,0,0.77c0,8.08,0,16.16,0,24.24
	c0,0.2,0.01,0.4,0,0.6c-0.02,0.36-0.22,0.56-0.58,0.58c-0.28,0.02-0.56,0-0.84,0c-20,0-40,0-59.99,0c-0.39,0-0.78,0-1.21,0
	c0,21.3,0,42.52,0,63.79c-8.31,0-16.57,0-24.89,0c0.02,0.02-0.01,0-0.03-0.03c-0.02-0.03-0.04-0.07-0.04-0.1
	c0-21.11,0-42.23,0-63.38C235.78,298.89,214.39,298.89,192.9,298.89z"/>
</svg>
