<?xml version="1.0" encoding="iso-8859-1"?>
<!-- Generator: Adobe Illustrator 26.5.0, SVG Export Plug-In . SVG Version: 6.00 Build 0)  -->
<svg version="1.1" id="Layer_1" xmlns="http://www.w3.org/2000/svg" xmlns:xlink="http://www.w3.org/1999/xlink" x="0px" y="0px"
	 viewBox="0 0 384 384" style="enable-background:new 0 0 384 384;" xml:space="preserve">
<style type="text/css">
	.st0{fill:#FFFFFF;}
	.st1{fill:#39BEEB;}
	.st2{fill:none;stroke:#FFFFFF;stroke-width:1.5;stroke-linecap:square;stroke-miterlimit:10;}
	.st3{fill:#39BEEB;stroke:#39BEEB;stroke-width:1.5;stroke-linecap:square;stroke-miterlimit:10;}
	.st4{fill:#CCC8E5;}
</style>
<g>
	<path class="st4" d="M215.5,379.4c-2.16,0-4.31,0-6.47,0c-1.14-1.68-1.9-4.13-3.49-4.93c-10.35-5.18-20.26-11.04-30.12-17.1
		c-10.61-6.52-22.85-10.52-33.05-17.55c-25.79-17.77-54.24-30.91-80.49-47.81c-3.86-2.48-7.81-4.82-10.99-6.77
		c0-63.14,0-125.04,0-187.95c53.8-31.15,107.74-62.39,162.2-93.92c17.54,9.91,35.22,20.4,53.37,30
		c17.29,9.15,33.81,19.68,50.82,29.28c20.1,11.35,40.31,22.72,60.01,34.87c0,62.64,0,125.27,0,187.91
		c-10.55,5.7-21.67,10.55-31.51,17.28c-17.07,11.67-35.73,20.46-53.3,31.19c-17.06,10.42-33.91,21.33-52.37,29.28
		C233.76,371.42,222.16,371.65,215.5,379.4z M118.16,295.45c49.94-40.4,97.57-78.92,145.66-117.81
		c30.47,22.71,59.75,46.22,90.83,69.36c0-43.46-0.1-84.97,0.09-126.47c0.03-6.9-0.94-11.09-8.54-14.5
		c-5.63-2.52-11.31-6.44-16.97-9.77c-19.09-11.22-37.42-23.88-57.11-33.88c-17.02-8.64-32.25-20.19-49.73-28.09
		c-10.74-4.85-10.36-6.17-20.15,0.33c-8.84,5.87-17.65,11.86-26.87,17.08c-10.85,6.15-22.7,10.67-33.12,17.43
		c-19.03,12.35-39.05,22.97-58.3,34.91c-3.88,2.41-7.57,5.12-10.77,7.3c0,53.98,0,106.81,0,160.12c10.6,9.3,23.42,15.55,35.91,22.23
		C112.12,295.31,116.12,295.09,118.16,295.45z M351.28,273.98c-3.29-3.3-6.2-7.57-10.23-9.99c-12.82-7.71-23.21-18.52-35.71-26.72
		c-12.09-7.93-22.89-17.89-33.98-27.28c-3.38-2.86-6.42-3.06-9.95-1.23c-2.67,1.38-5.48,2.7-7.78,4.59
		c-18.92,15.54-37.71,31.24-56.6,46.83c-6.39,5.28-12.83,10.51-19.43,15.52c-13.92,10.58-27.85,21.12-40.04,34.64
		c9.12,5.35,17.34,10.24,25.62,15.04c15.21,8.8,30.53,17.39,45.61,26.41c3.66,2.19,6.36,2.37,10,0.16
		c18.92-11.49,37.89-22.89,57.01-34.03c8.63-5.03,17.85-9.06,26.45-14.13C318.72,294.07,334.96,283.93,351.28,273.98z"/>
	<path class="st4" d="M124.83,155.88c1.31-20.98,15.4-36.67,38.12-38.61c8.7-0.74,16.34,3.85,23.17,10.34
		c8.04,7.64,12.19,17.62,12.44,27.04c0.23,8.85-4.42,18.36-11.93,25.55c-7.08,6.79-16.24,10.64-24.5,10.53
		c-8.92-0.11-18.22-4.4-25.74-11.59C129.03,172.14,126.6,163.8,124.83,155.88z M162.16,168.81c4.48,0.02,14.49-9.94,14.51-14.45
		c0.04-6.39-7.5-14.33-13.96-14.7c-6.86-0.39-15.51,8.22-15.16,15.1C147.88,161.14,155.81,168.78,162.16,168.81z"/>
</g>
</svg>
