<?xml version="1.0" encoding="iso-8859-1"?>
<!-- Generator: Adobe Illustrator 26.5.0, SVG Export Plug-In . SVG Version: 6.00 Build 0)  -->
<svg version="1.1" id="Layer_1" xmlns="http://www.w3.org/2000/svg" xmlns:xlink="http://www.w3.org/1999/xlink" x="0px" y="0px"
	 viewBox="0 0 384 384" style="enable-background:new 0 0 384 384;" xml:space="preserve">
<style type="text/css">
	.st0{fill:#FFFFFF;}
	.st1{fill:#39BEEB;}
	.st2{fill:none;stroke:#FFFFFF;stroke-width:1.5;stroke-linecap:square;stroke-miterlimit:10;}
	.st3{fill:#39BEEB;stroke:#39BEEB;stroke-width:1.5;stroke-linecap:square;stroke-miterlimit:10;}
	.st4{fill:#CCC8E5;}
</style>
<g>
	<path class="st4" d="M286.85,100.11c-0.4,53.28-42.97,94.85-96.71,94.43c-51.08-0.4-93.64-43.88-92.99-95.52
		c0.69-55.2,46.28-95.32,97.55-94.27C245.31,5.78,287.24,48.6,286.85,100.11z M267.8,99.7c0.01-41.74-33.67-75.48-75.47-75.59
		c-42.04-0.12-75.98,33.62-75.98,75.53c-0.01,41.93,33.86,75.66,75.93,75.62C234.01,175.22,267.79,141.42,267.8,99.7z"/>
	<path class="st4" d="M355.29,284.42c0.12-13.23-5.38-22.44-17.27-28.54c-36.89-18.94-75.83-31.21-116.88-36.77
		c-8.84-1.2-17.78-1.71-26.68-2.31c-0.86-0.06-1.68-0.03-2.46,0.06c-0.78-0.09-1.6-0.12-2.46-0.06c-8.91,0.59-17.85,1.11-26.68,2.31
		c-41.05,5.56-79.99,17.82-116.88,36.77c-11.89,6.1-17.39,15.31-17.27,28.54c0.2,21.12,0.01,42.25,0.1,63.37
		c0.01,3.37,0.19,6.83,1.02,10.07c3.38,13.3,14.29,21.27,29.24,21.35c21.12,0.12,42.25,0.03,63.37,0.03c9.56,0,19.12,0,28.68,0
		c12.34,0,24.67,0.05,37.01-0.04c1.28-0.01,2.59-0.09,3.88-0.28c1.28,0.19,2.6,0.27,3.88,0.28c12.33,0.09,24.67,0.04,37.01,0.04
		c9.56,0,19.12,0,28.68,0c21.12,0,42.25,0.09,63.37-0.03c14.95-0.08,25.86-8.06,29.24-21.35c0.82-3.24,1-6.71,1.02-10.07
		C355.28,326.67,355.1,305.54,355.29,284.42z M336.08,349.4c-0.04,7.41-3.86,10.78-11.94,10.8c-22.36,0.05-44.72,0.02-67.07,0.02
		c-21.12,0-42.25-0.04-63.37,0.04c-0.59,0-1.15,0.06-1.69,0.12c-0.55-0.07-1.1-0.12-1.69-0.12c-21.12-0.08-42.25-0.04-63.37-0.04
		c-22.36,0-44.72,0.03-67.07-0.02c-8.07-0.02-11.9-3.38-11.94-10.8c-0.11-22.36-0.04-44.72-0.04-67.07c0-3.92,1.71-6.66,5.24-8.5
		c24.65-12.85,50.43-22.62,77.46-29.17c19.95-4.83,40.19-7.46,60.62-9.05c0.27-0.02,0.53-0.06,0.8-0.09
		c0.26,0.04,0.52,0.07,0.8,0.09c20.43,1.59,40.68,4.21,60.62,9.05c27.03,6.55,52.81,16.31,77.46,29.17c3.53,1.84,5.24,4.58,5.24,8.5
		C336.11,304.68,336.18,327.04,336.08,349.4z"/>
</g>
</svg>
