<?xml version="1.0" encoding="iso-8859-1"?>
<!-- Generator: Adobe Illustrator 26.5.0, SVG Export Plug-In . SVG Version: 6.00 Build 0)  -->
<svg version="1.1" id="Layer_1" xmlns="http://www.w3.org/2000/svg" xmlns:xlink="http://www.w3.org/1999/xlink" x="0px" y="0px"
	 viewBox="0 0 384 384" style="enable-background:new 0 0 384 384;" xml:space="preserve">
<style type="text/css">
	.st0{fill:#FFFFFF;}
	.st1{fill:#39BEEB;}
	.st2{fill:none;stroke:#FFFFFF;stroke-width:1.5;stroke-linecap:square;stroke-miterlimit:10;}
	.st3{fill:#39BEEB;stroke:#39BEEB;stroke-width:1.5;stroke-linecap:square;stroke-miterlimit:10;}
</style>
<g>
	<path class="st0" d="M261.74,92.29c-0.35,47.38-38.21,84.34-86,83.97c-45.42-0.35-83.27-39.02-82.69-84.94
		c0.62-49.09,41.15-84.76,86.75-83.83C224.8,8.41,262.09,46.49,261.74,92.29z M244.8,91.93c0.01-37.12-29.94-67.12-67.11-67.22
		c-37.38-0.1-67.56,29.89-67.57,67.17c-0.01,37.29,30.11,67.28,67.52,67.24C214.75,159.08,244.79,129.03,244.8,91.93z"/>
	<path class="st0" d="M99.19,365.87c-18.78,0-37.57,0.08-56.35-0.03c-13.29-0.07-23-7.16-26-18.99c-0.73-2.88-0.89-5.96-0.9-8.96
		c-0.08-18.78,0.09-37.57-0.09-56.35c-0.11-11.76,4.79-19.95,15.36-25.38c32.8-16.85,67.43-27.75,103.93-32.69
		c7.86-1.06,15.81-1.52,23.73-2.05c5.53-0.37,9.35,2.88,9.66,7.81c0.3,4.78-2.8,8.5-8.18,8.91c-18.17,1.41-36.17,3.75-53.91,8.04
		c-24.03,5.82-46.96,14.51-68.88,25.94c-3.14,1.64-4.66,4.08-4.66,7.56c0,19.88-0.06,39.76,0.03,59.65
		c0.03,6.59,3.44,9.59,10.62,9.6c19.88,0.05,39.76,0.02,59.65,0.02c18.78,0,37.57-0.03,56.35,0.04c4.89,0.02,8.14,2.69,8.91,6.9
		c0.67,3.66-1.3,7.72-4.84,9.07c-1.85,0.71-4,0.87-6.01,0.88c-10.97,0.08-21.94,0.04-32.91,0.04
		C116.19,365.87,107.69,365.87,99.19,365.87z"/>
	<path class="st0" d="M214.86,279.41c0-18.37-0.1-36.75,0.03-55.12c0.14-20.44,12.62-36.35,32.03-40.82
		c3.7-0.85,7.6-1.13,11.41-1.12c11.51,0.02,23.04-0.09,34.52,0.6c9.98,0.6,18.25,5.44,24.98,12.79c3.54,3.86,3.45,8.79,0.01,12.14
		c-3.35,3.26-8.6,3.31-12.13-0.36c-5.83-6.08-12.91-8.33-21.12-8.2c-9.18,0.15-18.37-0.03-27.56,0.05
		c-14.95,0.12-25.06,10.22-25.07,25.1c-0.04,36.61-0.04,73.22,0,109.83c0.01,14.81,9.92,24.79,24.65,24.88
		c10.28,0.07,20.57-0.05,30.85,0.03c6.82,0.06,12.5-2.41,17.35-7.12c4.74-4.59,9.58-4.89,13.29-0.98c3.53,3.73,3.08,8.68-1.33,13.07
		c-7.94,7.89-17.5,12.03-28.73,12.09c-10.28,0.06-20.57,0.02-30.85,0.01c-24.6-0.03-42.16-17.47-42.3-42.16
		C214.78,315.88,214.86,297.65,214.86,279.41z"/>
	<path class="st0" d="M339.34,269.94c-6.15-6.04-12.33-12.04-18.44-18.12c-2.96-2.95-3.51-6.49-1.6-10.16
		c1.76-3.37,4.81-5.01,8.54-4.3c1.89,0.36,3.91,1.44,5.29,2.79c11.16,10.94,22.22,21.98,33.23,33.07c3.71,3.74,3.71,8.66-0.03,12.43
		c-11.02,11.08-22.1,22.11-33.25,33.05c-3.93,3.86-9,3.81-12.44,0.27c-3.38-3.48-3.23-8.56,0.6-12.47
		c5.82-5.93,11.78-11.72,18.35-18.25c-2.41-0.12-3.84-0.25-5.27-0.25c-21.11-0.01-42.23,0-63.34-0.02c-1.63,0-3.31-0.03-4.9-0.37
		c-4.38-0.94-7.25-4.73-6.89-8.89c0.37-4.35,3.95-7.73,8.57-7.75c15.08-0.07,30.16-0.03,45.24-0.03c8.61,0,17.22,0,25.83,0
		C339,270.62,339.17,270.28,339.34,269.94z"/>
</g>
</svg>
