<svg width="27" height="28" viewBox="0 0 27 28" fill="none" xmlns="http://www.w3.org/2000/svg">
    <path
        d="M13.2409 18.1365C15.4888 18.1365 17.3111 16.2846 17.3111 14.0001C17.3111 11.7157 15.4888 9.86377 13.2409 9.86377C10.993 9.86377 9.17065 11.7157 9.17065 14.0001C9.17065 16.2846 10.993 18.1365 13.2409 18.1365Z"
        stroke="#CBCAF9" stroke-width="1.5" stroke-miterlimit="10" stroke-linecap="square" />
    <path
        d="M22.5443 14C22.5432 13.3192 22.4699 12.6404 22.3257 11.9755L25.4819 9.54691L23.156 5.45309L19.501 7.02018C18.5113 6.09784 17.3364 5.40471 16.0575 4.98864L15.5668 1H10.9151L10.4243 4.98864C9.14544 5.40471 7.97061 6.09784 6.98092 7.02018L3.32585 5.45309L1 9.54691L4.15618 11.9755C3.86487 13.3089 3.86487 14.6911 4.15618 16.0245L1 18.4531L3.32585 22.5469L6.98092 20.9798C7.97061 21.9022 9.14544 22.5953 10.4243 23.0114L10.9151 27H15.5668L16.0575 23.0114C17.3364 22.5953 18.5113 21.9022 19.501 20.9798L23.156 22.5469L25.4819 18.4531L22.3257 16.0245C22.4699 15.3596 22.5432 14.6808 22.5443 14V14Z"
        stroke="#CBCAF9" stroke-width="1.5" stroke-miterlimit="10" stroke-linecap="square" />
</svg>