<?xml version="1.0" encoding="iso-8859-1"?>
<!-- Generator: Adobe Illustrator 26.5.0, SVG Export Plug-In . SVG Version: 6.00 Build 0)  -->
<svg version="1.1" id="Layer_1" xmlns="http://www.w3.org/2000/svg" xmlns:xlink="http://www.w3.org/1999/xlink" x="0px" y="0px"
	 viewBox="0 0 384 384" style="enable-background:new 0 0 384 384;" xml:space="preserve">
<style type="text/css">
	.st0{fill:#FFFFFF;}
	.st1{fill:#39BEEB;}
	.st2{fill:none;stroke:#FFFFFF;stroke-width:1.5;stroke-linecap:square;stroke-miterlimit:10;}
	.st3{fill:#39BEEB;stroke:#39BEEB;stroke-width:1.5;stroke-linecap:square;stroke-miterlimit:10;}
	.st4{fill:#CCC8E5;}
</style>
<g>
	<path class="st4" d="M381.81,219.03c-4.57,4.02-10.41,4.73-15.98,6.1c-4.77,1.17-9.56,2.25-14.36,3.28
		c-2.01,0.43-3.13,1.54-3.62,3.52c-3.73,15.18-9.62,29.46-17.78,42.79c-1.16,1.89-1.04,3.55,0.11,5.37
		c4.3,6.81,8.54,13.66,12.8,20.49c0.39,0.63,0.77,1.28,1.12,1.94c1.56,3.01,1.4,5.17-0.87,7.68c-2.16,2.39-4.48,4.64-6.76,6.92
		c-8.48,8.48-16.98,16.95-25.47,25.42c-0.31,0.31-0.62,0.6-0.95,0.88c-2.79,2.39-4.98,2.68-8.18,0.82
		c-3.67-2.13-7.26-4.4-10.86-6.64c-3.7-2.3-7.42-4.59-11.06-6.99c-1.98-1.3-3.73-1.33-5.78-0.08
		c-13.17,8.03-27.27,13.88-42.25,17.55c-2.35,0.58-3.47,1.88-3.99,4.17c-1.74,7.7-3.63,15.36-5.41,23.05
		c-0.59,2.55-2.31,4.43-3.7,6.5c-0.16,0.24-0.77,0.26-1.17,0.26c-7.35,0.01-14.71,0.01-22.06,0.01c-9.44,0-18.88-0.01-28.32,0.02
		c-0.83,0-1.28-0.28-1.83-0.91c-3.26-3.72-3.85-8.44-4.96-12.95c-1.33-5.37-2.55-10.78-3.72-16.19c-0.48-2.24-1.73-3.44-3.93-3.98
		c-14.82-3.66-28.81-9.36-41.84-17.33c-2.31-1.41-4.22-1.41-6.51,0.07c-6.73,4.34-13.58,8.51-20.39,12.75
		c-0.3,0.19-0.61,0.36-0.92,0.53c-3.65,2.03-5.86,1.88-8.82-1.04c-7.54-7.42-15-14.92-22.48-22.39c-3.15-3.14-6.3-6.27-9.42-9.44
		c-3.4-3.45-3.68-5.77-1.15-9.86c4.29-6.95,8.59-13.91,13-20.79c1.4-2.19,1.47-4.11,0.11-6.34C46.41,261.18,40.64,247.18,37,232.3
		c-0.54-2.22-1.83-3.5-4.09-4.01c-8.01-1.8-15.99-3.68-23.99-5.53c-4.44-1.02-6.24-3.25-6.23-7.82c0.01-8.61,0.06-17.22,0.07-25.84
		c0-6.13-0.05-12.27-0.07-18.4c0-0.86,0.02-1.74,0.18-2.58c0.55-2.93,2.48-4.56,5.25-5.25c4.35-1.07,8.71-2.06,13.07-3.08
		c3.9-0.91,7.79-1.85,11.71-2.67c2.33-0.49,3.55-1.83,4.11-4.11c3.68-14.99,9.54-29.08,17.58-42.24c1.17-1.91,1.13-3.6-0.06-5.48
		c-4.31-6.81-8.55-13.65-12.79-20.5c-0.66-1.06-1.23-2.19-1.71-3.35c-0.75-1.8-0.49-3.56,0.64-5.14c0.59-0.83,1.26-1.61,1.98-2.34
		c6.96-7,13.92-14,20.9-20.98c3.42-3.42,6.85-6.83,10.3-10.22c3.41-3.36,5.65-3.67,9.76-1.19c5.28,3.19,10.51,6.47,15.75,9.72
		c1.84,1.14,3.67,2.29,5.46,3.49c1.91,1.28,3.75,1.32,5.72,0.11c13.1-8,27.08-13.9,42.03-17.45c2.41-0.57,3.75-2.09,4.29-4.47
		c1.8-7.89,3.65-15.76,5.46-23.64c1.02-4.44,3.26-6.28,7.77-6.28c15.02,0.01,30.05,0.02,45.07,0.04c4.07,0,5.96,1.32,6.94,5.3
		c2.02,8.2,3.95,16.42,5.81,24.65c0.54,2.4,1.81,3.74,4.2,4.32c14.88,3.63,28.86,9.44,41.92,17.43c2.09,1.28,3.99,1.23,6.05-0.07
		c6.97-4.41,13.98-8.77,20.99-13.12c1.75-1.08,3.63-2.18,5.75-1.42c1.36,0.49,2.73,1.3,3.75,2.31
		c10.73,10.63,21.4,21.31,32.06,32.02c2.96,2.97,3.31,5.41,1.12,9.01c-4.36,7.19-8.82,14.32-13.33,21.41
		c-1.33,2.1-1.44,3.97-0.12,6.12c8,13.06,13.75,27.07,17.43,41.93c0.61,2.48,2,3.68,4.43,4.21c7.21,1.58,14.4,3.24,21.57,4.99
		c1.6,0.39,3.11,1.25,4.6,2.02c1.21,0.63,2.33,1.45,3.49,2.19C381.81,183.94,381.81,201.49,381.81,219.03z M80.46,55.33
		c-0.76,0.57-1.63,1.08-2.34,1.77c-1.69,1.64-3.29,3.38-4.96,5.05C67.64,67.64,62.1,73.11,56.58,78.6
		c-1.64,1.63-1.75,2.46-0.56,4.35c4.07,6.45,8.18,12.86,12.2,19.34c0.79,1.28,1.44,2.72,1.81,4.18c0.69,2.74-0.46,5.12-1.81,7.46
		c-3.07,5.34-6.25,10.63-9.01,16.14c-4.95,9.88-8.31,20.34-10.61,31.14c-0.89,4.16-3.35,6.67-7.54,7.59
		c-7.63,1.68-15.24,3.45-22.86,5.18c-2.14,0.49-2.77,1.25-2.77,3.43c0,1.49,0.07,2.99,0.07,4.48c-0.02,8.57-0.05,17.14-0.07,25.72
		c-0.01,2.63,0.57,3.32,3.1,3.9c7.66,1.73,15.32,3.47,22.98,5.22c3.86,0.88,6.27,3.18,7.06,7.15c1.67,8.34,4.21,16.42,7.44,24.29
		c3.41,8.31,7.56,16.23,12.46,23.75c2.24,3.43,2.55,6.82,0.31,10.36c-4.19,6.6-8.34,13.23-12.52,19.84
		c-1.49,2.35-1.41,2.99,0.6,4.98c5.39,5.34,10.78,10.68,16.16,16.04c1.78,1.78,3.52,3.59,5.28,5.4c1.53,1.57,2.35,1.75,4.01,0.71
		c6.26-3.93,12.6-7.73,18.71-11.86c4.56-3.08,8.78-3.13,13.32-0.09c6.18,4.13,12.76,7.57,19.57,10.56
		c8.73,3.83,17.79,6.66,27.1,8.67c4.07,0.88,6.53,3.39,7.45,7.43c1.73,7.66,3.46,15.32,5.19,22.98c0.49,2.18,1.15,2.7,3.44,2.7
		c10.19,0,20.37,0,30.56,0c2.31,0,3-0.56,3.5-2.79c1.75-7.78,3.48-15.56,5.27-23.33c0.87-3.79,3.12-6.23,7.08-6.98
		c2.24-0.42,4.45-0.98,6.65-1.55c14.92-3.87,28.78-10.14,41.7-18.52c3.4-2.21,6.71-2.32,10.14-0.13
		c6.63,4.22,13.29,8.39,19.93,12.59c2.23,1.41,2.77,1.36,4.67-0.55c6.47-6.49,12.94-12.97,19.41-19.46c0.83-0.83,1.7-1.63,2.52-2.48
		c1.29-1.35,1.36-2.08,0.41-3.65c-0.18-0.3-0.38-0.59-0.57-0.89c-4.06-6.41-8.12-12.81-12.16-19.22c-2.07-3.28-2.2-6.64-0.31-10.05
		c0.34-0.62,0.71-1.22,1.09-1.82c9.18-14.29,15.59-29.73,19.08-46.36c0.92-4.36,3.47-6.91,7.87-7.86c7.56-1.62,15.09-3.4,22.63-5.11
		c2.1-0.48,2.75-1.27,2.74-3.45c-0.02-4.01-0.11-8.02-0.1-12.03c0.02-5.98,0.09-11.95,0.15-17.93c0.03-2.76-0.57-3.61-3.22-4.21
		c-7.46-1.7-14.93-3.41-22.41-5.05c-4.07-0.89-6.61-3.23-7.49-7.33c-3.74-17.3-10.34-33.42-20.08-48.23
		c-2.3-3.49-2.28-6.82-0.03-10.33c4.2-6.55,8.29-13.17,12.4-19.77c1.58-2.53,1.54-2.55-0.55-4.66
		c-7.21-7.25-14.42-14.49-21.64-21.74c-1.47-1.48-2.24-1.59-4.04-0.46c-5.93,3.71-11.84,7.44-17.76,11.17
		c-0.43,0.27-0.86,0.55-1.29,0.83c-4.64,3.09-7.73,3.09-12.4,0.03c-14.23-9.3-29.71-15.6-46.3-19.22c-5.08-1.11-7.33-3.46-8.44-8.57
		c-1.64-7.56-3.41-15.09-5.15-22.63c-0.37-1.59-0.99-2.07-2.66-2.09c-1.18-0.02-2.36,0.03-3.54,0.03
		c-9.32-0.01-18.64-0.03-27.96-0.04c-2.08,0-2.67,0.46-3.12,2.43c-1.75,7.7-3.49,15.39-5.22,23.09c-0.93,4.14-3.39,6.69-7.57,7.6
		c-17.22,3.73-33.25,10.33-47.99,20.03c-3.51,2.31-6.98,2.17-10.49-0.07c-6.62-4.23-13.28-8.4-19.93-12.58
		C81.94,55.94,81.3,55.72,80.46,55.33z"/>
	<path class="st4" d="M91.06,192.67c-0.94-54.16,44.13-100.12,98.86-101.44c56.03-1.34,102.37,44.25,103.92,98.6
		c1.59,55.83-43.6,102.92-98.82,104.36C138.08,295.69,90.05,248.64,91.06,192.67z M192.28,281.06c49.77-0.14,88.07-38.81,88.4-87.68
		c0.33-49.64-37.92-88.53-87.37-88.97c-51.2-0.46-88.54,39.51-89.5,88.42C104.93,241.77,142.15,280.82,192.28,281.06z"/>
</g>
</svg>
