<?xml version="1.0" encoding="iso-8859-1"?>
<!-- Generator: Adobe Illustrator 26.5.0, SVG Export Plug-In . SVG Version: 6.00 Build 0)  -->
<svg version="1.1" id="Layer_1" xmlns="http://www.w3.org/2000/svg" xmlns:xlink="http://www.w3.org/1999/xlink" x="0px" y="0px"
	 viewBox="0 0 384 384" style="enable-background:new 0 0 384 384;" xml:space="preserve">
<style type="text/css">
	.st0{fill:#FFFFFF;}
	.st1{fill:#39BEEB;}
	.st2{fill:none;stroke:#FFFFFF;stroke-width:1.5;stroke-linecap:square;stroke-miterlimit:10;}
	.st3{fill:#39BEEB;stroke:#39BEEB;stroke-width:1.5;stroke-linecap:square;stroke-miterlimit:10;}
</style>
<g>
	<path class="st1" d="M2.33,169.47c0.06-0.13,0.17-0.26,0.19-0.39c0.45-3.56,2.01-5.39,5.59-6.24c8.06-1.92,16.12-3.83,24.21-5.62
		c2.54-0.56,3.89-1.86,4.52-4.41c3.68-14.9,9.51-28.92,17.52-42.02c1.17-1.91,1.15-3.6-0.04-5.48c-4.33-6.84-8.6-13.72-12.85-20.61
		c-0.72-1.16-1.33-2.41-1.8-3.69c-0.61-1.66-0.24-3.27,0.77-4.7c0.59-0.83,1.26-1.62,1.97-2.34c7.01-7.06,14.03-14.11,21.07-21.15
		c3.56-3.56,7.1-7.13,10.75-10.6c2.91-2.77,5.01-3.05,8.51-0.99c5.45,3.21,10.79,6.6,16.17,9.93c1.9,1.18,3.8,2.37,5.66,3.62
		c1.91,1.28,3.74,1.33,5.72,0.12c13.1-8,27.08-13.9,42.03-17.45c2.41-0.57,3.75-2.09,4.29-4.47c1.8-7.89,3.65-15.76,5.46-23.64
		c1.02-4.44,3.26-6.29,7.77-6.28c15.02,0.01,30.05,0.02,45.07,0.04c4.07,0,5.96,1.32,6.94,5.3c2.02,8.2,3.95,16.42,5.81,24.65
		c0.54,2.4,1.81,3.74,4.2,4.32c14.88,3.63,28.86,9.44,41.92,17.43c2.09,1.28,3.99,1.23,6.05-0.07c7.01-4.43,14.05-8.81,21.09-13.18
		c1.76-1.09,3.66-2.14,5.76-1.34c1.38,0.53,2.75,1.41,3.8,2.46c10.59,10.49,21.11,21.05,31.65,31.59c3.22,3.23,3.59,5.64,1.19,9.58
		c-4.32,7.08-8.71,14.11-13.16,21.11c-1.34,2.1-1.43,3.97-0.11,6.12c8,13.06,13.75,27.07,17.43,41.93c0.61,2.48,2.01,3.67,4.44,4.2
		c7.17,1.57,14.3,3.32,21.47,4.91c2.99,0.66,5.27,2.57,7.76,4.1c0.26,0.16,0.36,0.74,0.36,1.13c0.02,4.76,0.02,9.52,0.02,14.28
		c0,12.08-0.01,24.15,0.02,36.23c0,0.83-0.3,1.27-0.92,1.82c-3.74,3.31-8.52,3.85-13.06,4.98c-5.41,1.35-10.85,2.57-16.3,3.75
		c-2.06,0.45-3.17,1.59-3.67,3.61c-3.72,15.09-9.56,29.32-17.69,42.58c-1.2,1.96-1.12,3.67,0.09,5.58
		c4.35,6.87,8.66,13.77,12.9,20.71c0.81,1.32,1.43,2.8,1.84,4.29c0.49,1.76-0.24,3.37-1.44,4.65c-2.3,2.48-4.66,4.9-7.05,7.29
		c-8.48,8.49-16.98,16.95-25.47,25.43c-0.36,0.36-0.74,0.71-1.13,1.04c-2.62,2.2-4.79,2.53-7.79,0.79
		c-4.41-2.57-8.74-5.29-13.08-7.98c-3.11-1.92-6.21-3.85-9.26-5.86c-1.87-1.23-3.57-1.2-5.47-0.04
		c-13.24,8.08-27.41,13.96-42.47,17.65c-2.31,0.57-3.38,1.9-3.88,4.13c-1.74,7.7-3.63,15.36-5.41,23.05
		c-0.59,2.55-2.31,4.43-3.7,6.51c-0.16,0.25-0.77,0.27-1.17,0.27c-6.33,0.02-12.67,0.01-19,0.01c-10.5,0-21-0.01-31.51,0.02
		c-0.8,0-1.2-0.31-1.71-0.9c-3.28-3.71-3.86-8.44-4.97-12.94c-1.33-5.37-2.55-10.78-3.72-16.19c-0.48-2.24-1.72-3.45-3.92-3.99
		c-14.82-3.66-28.82-9.36-41.85-17.33c-2.31-1.41-4.22-1.42-6.51,0.06c-6.74,4.34-13.58,8.51-20.39,12.75
		c-0.3,0.19-0.61,0.36-0.92,0.53c-3.65,2.03-5.86,1.88-8.82-1.03c-7.54-7.42-15-14.92-22.48-22.4c-3.31-3.31-6.65-6.58-9.88-9.97
		c-2.89-3.04-3.15-5.27-0.92-8.92c4.34-7.11,8.74-14.18,13.23-21.2c1.4-2.19,1.47-4.11,0.11-6.34c-7.96-13.04-13.73-27-17.36-41.83
		c-0.58-2.39-1.96-3.65-4.35-4.19c-8.05-1.8-16.07-3.69-24.1-5.58c-3.8-0.9-5.25-2.55-5.84-6.41c-0.02-0.1-0.12-0.19-0.18-0.28
		c0-1.73,0-3.46,0-5.19c0.07-0.41,0.19-0.82,0.19-1.24c0.01-11.45,0.01-22.9,0-34.35c0-0.41-0.12-0.82-0.19-1.23
		C2.33,172.46,2.33,170.96,2.33,169.47z M70.1,277.38c0.03,1.75-0.58,3.32-1.49,4.77c-4.18,6.65-8.37,13.3-12.57,19.95
		c-1.5,2.37-1.43,3,0.56,4.98c6.06,6.01,12.12,12.02,18.16,18.04c1.14,1.14,2.23,2.33,3.36,3.48c1.49,1.52,2.3,1.68,3.92,0.66
		c6.29-3.95,12.66-7.78,18.81-11.92c4.48-3.01,8.58-2.97,13.13-0.16c5.2,3.22,10.55,6.23,16.03,8.95
		c9.75,4.84,20.08,8.1,30.72,10.38c4.07,0.87,6.55,3.36,7.47,7.41c1.73,7.62,3.45,15.24,5.17,22.86c0.53,2.36,1.13,2.84,3.56,2.84
		c10.15,0,20.29,0,30.44,0c2.36,0,3.03-0.57,3.55-2.88c1.74-7.78,3.47-15.56,5.27-23.33c0.88-3.79,3.18-6.22,7.15-6.9
		c1.24-0.21,2.46-0.53,3.68-0.82c16.02-3.81,30.86-10.35,44.66-19.29c3.42-2.21,6.72-2.23,10.14-0.04
		c6.69,4.27,13.42,8.48,20.13,12.71c1.87,1.18,2.57,1.11,4.12-0.45c3.83-3.85,7.63-7.72,11.46-11.56c3.53-3.53,7.1-7.02,10.64-10.55
		c1.41-1.4,1.51-2.16,0.52-3.73c-4.02-6.38-7.95-12.83-12.13-19.1c-2.83-4.25-2.89-8.25-0.13-12.5
		c9.38-14.41,15.86-30.03,19.39-46.86c0.86-4.1,3.22-6.72,7.36-7.66c7.66-1.73,15.32-3.47,22.98-5.2c2.27-0.51,2.9-1.25,2.89-3.57
		c-0.02-4.01-0.12-8.02-0.1-12.03c0.02-5.98,0.09-11.95,0.15-17.93c0.02-2.69-0.58-3.52-3.19-4.11c-7.5-1.71-15.01-3.42-22.52-5.08
		c-4.02-0.89-6.52-3.23-7.4-7.28c-3.77-17.42-10.43-33.63-20.25-48.53c-2.16-3.28-2.09-6.52,0.01-9.82
		c4.21-6.64,8.37-13.3,12.52-19.97c1.59-2.56,1.56-2.58-0.6-4.74c-7.19-7.22-14.37-14.44-21.55-21.66c-1.48-1.49-2.25-1.6-4.04-0.5
		c-3.21,1.99-6.4,3.99-9.59,6c-3.39,2.14-6.79,4.27-10.14,6.47c-3.64,2.39-7.26,2.47-10.93,0.11c-0.36-0.23-0.73-0.47-1.09-0.7
		c-14.16-9.19-29.53-15.44-46-19.04c-5.09-1.11-7.36-3.46-8.47-8.55c-1.65-7.6-3.42-15.17-5.17-22.74c-0.34-1.46-0.99-1.96-2.49-2
		c-1.22-0.03-2.44,0.03-3.66,0.02c-9.36-0.01-18.72-0.03-28.08-0.03c-1.98,0-2.58,0.48-3.02,2.41c-1.75,7.7-3.5,15.39-5.22,23.09
		c-0.92,4.14-3.37,6.71-7.54,7.62c-17.22,3.73-33.26,10.32-47.99,20.02c-3.41,2.24-6.84,2.25-10.28,0.07
		c-6.61-4.18-13.23-8.34-19.84-12.52c-2.14-1.35-2.92-1.25-4.7,0.57c-3.19,3.26-6.36,6.54-9.59,9.76
		c-3.98,3.97-8.01,7.89-12.01,11.85c-1.57,1.55-1.67,2.42-0.51,4.26c3.96,6.28,7.81,12.63,11.94,18.8c2.85,4.26,2.86,8.2,0.12,12.48
		c-2.56,4-4.94,8.12-7.14,12.33c-5.73,10.95-9.75,22.54-12.32,34.63c-0.89,4.21-3.39,6.72-7.64,7.64
		c-7.6,1.65-15.16,3.43-22.74,5.16c-2.19,0.5-2.8,1.25-2.8,3.53c0,2.04,0.07,4.09,0.07,6.13c-0.01,8.06-0.05,16.12-0.07,24.18
		c0,2.37,0.64,3.14,2.95,3.67c7.7,1.75,15.4,3.48,23.09,5.24c3.91,0.89,6.17,3.26,7.14,7.24c1.43,5.87,2.97,11.73,4.87,17.46
		c3.6,10.82,8.78,20.91,14.95,30.49C69.28,273.58,70.14,275.33,70.1,277.38z"/>
	<path class="st1" d="M90.83,192.61c-0.91-53.81,43.78-99.93,98.7-101.36c55.91-1.45,102.43,43.91,104.08,98.42
		c1.69,55.75-43.3,102.97-98.64,104.52C137.85,295.79,89.75,248.59,90.83,192.61z M192.03,281.06
		c49.77-0.13,88.08-38.81,88.41-87.67c0.34-49.65-37.91-88.53-87.35-88.98c-51.18-0.47-88.55,39.48-89.52,88.41
		C104.68,241.73,141.88,280.81,192.03,281.06z"/>
</g>
</svg>
