<?xml version="1.0" encoding="iso-8859-1"?>
<!-- Generator: Adobe Illustrator 26.5.0, SVG Export Plug-In . SVG Version: 6.00 Build 0)  -->
<svg version="1.1" id="Layer_1" xmlns="http://www.w3.org/2000/svg" xmlns:xlink="http://www.w3.org/1999/xlink" x="0px" y="0px"
	 viewBox="0 0 384 384" style="enable-background:new 0 0 384 384;" xml:space="preserve">
<style type="text/css">
	.st0{fill:#FFFFFF;}
	.st1{fill:#39BEEB;}
	.st2{fill:none;stroke:#FFFFFF;stroke-width:1.5;stroke-linecap:square;stroke-miterlimit:10;}
	.st3{fill:#39BEEB;stroke:#39BEEB;stroke-width:1.5;stroke-linecap:square;stroke-miterlimit:10;}
	.st4{fill:#CCC8E5;}
</style>
<g>
	<path class="st1" d="M347.39,364.68c-97.77,0-195.54,0-293.32,0c-0.53-0.95-0.86-2.52-1.6-2.75
		c-21.24-6.59-40.78-24.59-40.52-55.98c0.65-77.87,0.83-155.76-0.17-233.62c-0.29-22.87,20.2-43.25,42.89-42.93
		c72.12,1.02,144.26,0.36,216.4,0.42c4.42,0,8.84,0.59,13.47,0.92c0,8.11,0.17,15.08-0.05,22.03c-0.23,7.34,1.1,14.83-0.86,21.44
		c-8.42,0-15.73,0-23.1,0c-0.38-7.09-0.71-13.26-1.05-19.67c-71.99,0-142.88,0-213.58,0c-11.13,5.81-9.77,15.82-8.85,25.68
		c7.06,9.69,16.55,12.57,28.44,12.53c87.84-0.35,175.68-0.19,263.52-0.19c5.71,0,11.41,0,18.38,0c0,16.05-0.22,31.02,0.06,45.98
		c0.28,14.85-1.32,29.8,1.1,44.72c6.84,0,12.66-0.16,18.47,0.04c9.75,0.33,11.67,2.25,11.74,12.59c0.15,20.92,0.09,41.84,0.01,62.76
		c-0.02,3.85-0.56,7.69-0.94,12.59c-10.71,0-20.37,0-30.45,0C347.39,303.16,347.39,333.92,347.39,364.68z M36.61,114.27
		c0,65.71,0.07,130.14-0.09,194.57c-0.02,7.95,2.7,14.28,7.85,20.05c7.32,8.21,16.01,11.61,27.3,11.56
		c79.04-0.36,158.09-0.19,237.13-0.19c4.46,0,8.92,0,13.41,0c0-24.03,0-46.42,0-69.76c-9.9,0-19.11,0.01-28.31,0
		c-3.49-0.01-7.48,1.03-10.38-0.29c-14.27-6.5-27.01-16.32-29.86-31.93c-3.14-17.22,0.38-33.8,17.34-44.79
		c10.34-6.71,21.2-9.74,33.22-10.28c6.15-0.28,12.6,1.59,18.83-1.5c-0.69-21.77,0.87-43.05-0.95-64.71
		c-63.25,0-125.4,0.33-187.55-0.13C102.45,116.62,70.21,119.35,36.61,114.27z M353.71,207.7c-17.09,0-32.72,0.41-48.31-0.13
		c-11.87-0.42-21.16,3.3-27.38,12.58c0,6.39,0,12.1,0,19.03c4.17,2.24,8.44,6.42,12.84,6.57c20.71,0.71,41.47,0.32,62.84,0.32
		C353.71,233.09,353.71,221.18,353.71,207.7z"/>
</g>
</svg>
