<svg width="26" height="24" viewBox="0 0 26 24" fill="none" xmlns="http://www.w3.org/2000/svg">
<path d="M22.8565 11.7172V5.2871H3.56462C2.38085 5.2871 1.42108 4.32732 1.42108 3.14355V19.2201C1.42108 20.996 2.86047 22.4354 4.63639 22.4354H22.8565V16.0048" stroke="#31C1EE" stroke-width="1.5" stroke-miterlimit="10" stroke-linecap="square"/>
<path d="M3.94737 5.63157L1.84211 4.36841V7.73683L1.42105 15.3158L1 19.5263L3.10526 22.0526L8.15789 22.4737H22.8947V15.7368H18.6842L17.8421 13.6316L19.1053 11.9474L22.8947 11.5263V5.21051H19.5263L9.8421 5.63157H3.94737Z" fill="#31C1EE"/>
<path d="M18.5694 2.60766V1H3.56462C2.38085 1 1.42108 1.95977 1.42108 3.14354C1.42108 4.32731 2.38085 5.28708 3.56462 5.28708" stroke="#31C1EE" stroke-width="1.5" stroke-miterlimit="10" stroke-linecap="square"/>
<path d="M25 16.0049H20.177C18.9933 16.0049 18.0335 15.0451 18.0335 13.8613C18.0335 12.6775 18.9933 11.7178 20.177 11.7178H25V16.0049Z" stroke="white" stroke-width="1.5" stroke-miterlimit="10" stroke-linecap="square"/>
</svg>
