<svg width="97" height="32" viewBox="0 0 97 32" fill="none" xmlns="http://www.w3.org/2000/svg">
<path d="M46.185 20.182C48.439 20.182 50.189 18.894 50.805 16.864H49.545C49.055 18.362 47.711 19.118 46.199 19.118C44.029 19.118 42.335 17.424 42.335 15.1C42.335 12.804 44.029 11.082 46.199 11.082C47.711 11.082 49.069 11.852 49.587 13.336H50.805C50.161 11.348 48.453 10.018 46.199 10.018C43.301 10.018 41.159 12.216 41.159 15.1C41.159 18.012 43.287 20.182 46.185 20.182ZM55.9999 20.182C58.1839 20.182 59.8079 18.544 59.8079 16.36C59.8079 14.176 58.2119 12.538 56.0139 12.538C53.8439 12.538 52.2059 14.162 52.2059 16.36C52.2059 18.572 53.8159 20.182 55.9999 20.182ZM55.9999 19.174C54.4459 19.174 53.3399 17.998 53.3399 16.36C53.3399 14.764 54.4319 13.546 55.9999 13.546C57.5679 13.546 58.6739 14.75 58.6739 16.36C58.6739 17.984 57.5679 19.174 55.9999 19.174ZM61.762 20H62.868V15.66C62.868 14.456 63.764 13.574 64.912 13.574C65.934 13.574 66.788 14.33 66.788 15.492V20H67.894V15.422C67.894 13.812 66.872 12.538 65.178 12.538C64.044 12.538 63.26 13.126 62.952 13.784H62.868V12.72H61.762V20ZM72.2955 20H73.4435L76.3135 12.72H75.0955L72.9115 18.642H72.8275L70.6295 12.72H69.4395L72.2955 20ZM80.797 20.182C82.505 20.182 83.779 19.216 84.185 17.858H83.037C82.701 18.712 81.777 19.174 80.811 19.174C79.313 19.174 78.375 18.208 78.319 16.752H84.255V16.262C84.255 14.162 82.939 12.538 80.727 12.538C78.739 12.538 77.157 14.036 77.157 16.36C77.157 18.544 78.571 20.182 80.797 20.182ZM78.347 15.772C78.459 14.428 79.509 13.546 80.727 13.546C81.959 13.546 82.981 14.316 83.079 15.772H78.347ZM86.2209 20H87.3269V16.248C87.3269 14.862 88.0689 13.826 89.3989 13.826H90.0009V12.72H89.3849C88.3209 12.72 87.6069 13.462 87.3969 14.078H87.3129V12.72H86.2209V20ZM94.6684 20H95.7464V19.034H94.7384C93.8984 19.034 93.6044 18.572 93.6044 17.788V13.658H95.8444V12.72H93.6044V10.606H92.5684V12.356C92.5684 12.594 92.4144 12.72 92.2184 12.72H91.1264V13.658H92.4984V17.802C92.4984 19.272 93.3244 20 94.6684 20Z" fill="white"/>
<circle cx="16" cy="16" r="16" fill="#1AD6FF"/>
<path d="M10.2834 14.8333C10.8242 12.1704 13.1779 10.1667 16.0001 10.1667C17.5903 10.1667 19.0323 10.8031 20.0846 11.835" stroke="#28185C" stroke-width="2" stroke-miterlimit="10" stroke-linecap="square"/>
<path d="M18.3335 13.0833L21.2502 10.1667L21.8335 13.6667L18.3335 13.0833Z" stroke="#28185C" stroke-width="2" stroke-miterlimit="10" stroke-linecap="square"/>
<path d="M18.3335 13.0833L21.2502 10.1667L21.8335 13.6667L18.3335 13.0833Z" stroke="#28185C" stroke-width="2" stroke-miterlimit="10" stroke-linecap="square"/>
<path d="M21.7167 17.1667C21.1759 19.829 18.8222 21.8333 16 21.8333C14.4099 21.8333 12.9679 21.1969 11.9155 20.165" stroke="#28185C" stroke-width="2" stroke-miterlimit="10" stroke-linecap="square"/>
<path d="M13.6667 18.9167L10.7501 21.8333L10.1667 18.3333L13.6667 18.9167Z" stroke="#28185C" stroke-width="2" stroke-miterlimit="10" stroke-linecap="round"/>
<path d="M13.6667 18.9167L10.7501 21.8333L10.1667 18.3333L13.6667 18.9167Z" stroke="#28185C" stroke-width="2" stroke-miterlimit="10" stroke-linecap="round"/>
</svg>
