<svg width="80" height="11" viewBox="0 0 80 11" fill="none" xmlns="http://www.w3.org/2000/svg">
<path d="M0.107422 10.5V0.697266H3.40918C4.17936 0.697266 4.87891 0.818034 5.50781 1.05957C6.13672 1.29655 6.66081 1.63151 7.08008 2.06445C7.50391 2.49284 7.82975 3.00781 8.05762 3.60938C8.29004 4.20638 8.40625 4.86035 8.40625 5.57129C8.40625 7.09342 7.96191 8.29655 7.07324 9.18066C6.18913 10.0602 4.96777 10.5 3.40918 10.5H0.107422ZM1.9668 8.87305H3.34082C3.78288 8.87305 4.18848 8.80697 4.55762 8.6748C4.93132 8.54264 5.26172 8.34668 5.54883 8.08691C5.84049 7.82715 6.06836 7.48307 6.23242 7.05469C6.39648 6.62174 6.47852 6.12728 6.47852 5.57129C6.47852 4.86035 6.33496 4.25651 6.04785 3.75977C5.7653 3.26302 5.3916 2.90072 4.92676 2.67285C4.46191 2.44043 3.93327 2.32422 3.34082 2.32422H1.9668V8.87305ZM10.3952 10.5V0.697266H16.3972V2.31055H12.2546V4.74414H15.7956V6.34375H12.2546V8.88672H16.5407V10.5H10.3952ZM17.6274 0.697266H19.685L22.187 8.08008H22.2895L24.8188 0.697266H26.8764L23.2123 10.5H21.2504L17.6274 0.697266ZM28.4826 10.5V0.697266H34.4845V2.31055H30.342V4.74414H33.883V6.34375H30.342V8.88672H34.6281V10.5H28.4826ZM36.6102 10.5V0.697266H38.4696V8.8457H42.4345V10.5H36.6102ZM43.2477 5.59863C43.2477 4.65072 43.471 3.78939 43.9176 3.01465C44.3642 2.23535 44.9817 1.62467 45.7701 1.18262C46.5585 0.74056 47.4404 0.519531 48.4156 0.519531C49.1448 0.519531 49.8284 0.651693 50.4664 0.916016C51.109 1.17578 51.6559 1.53125 52.107 1.98242C52.5628 2.43359 52.9205 2.97363 53.1803 3.60254C53.4446 4.22689 53.5768 4.89225 53.5768 5.59863C53.5768 6.54655 53.3535 7.41016 52.9068 8.18945C52.4602 8.96419 51.8404 9.57487 51.0475 10.0215C50.2591 10.4635 49.3772 10.6846 48.402 10.6846C47.4267 10.6846 46.5449 10.4658 45.7564 10.0283C44.9726 9.58626 44.3574 8.97786 43.9107 8.20312C43.4687 7.42383 43.2477 6.55566 43.2477 5.59863ZM45.1822 5.59863C45.1822 6.55566 45.4853 7.34635 46.0914 7.9707C46.7021 8.59505 47.4768 8.90723 48.4156 8.90723C49.3499 8.90723 50.1201 8.59505 50.7262 7.9707C51.3323 7.34635 51.6354 6.55566 51.6354 5.59863C51.6354 4.65527 51.33 3.86914 50.7193 3.24023C50.1132 2.61133 49.3453 2.29688 48.4156 2.29688C47.4768 2.29688 46.7021 2.61133 46.0914 3.24023C45.4853 3.86914 45.1822 4.65527 45.1822 5.59863ZM55.5726 10.5V0.697266H59.2845C60.2324 0.697266 61.014 0.991211 61.6292 1.5791C62.249 2.16699 62.5589 2.92806 62.5589 3.8623C62.5589 4.46842 62.4131 5.01758 62.1214 5.50977C61.8297 6.00195 61.4333 6.38477 60.932 6.6582C60.4352 6.93164 59.8861 7.06836 59.2845 7.06836H57.432V10.5H55.5726ZM57.432 5.47559H59.0863C59.5511 5.47559 59.9271 5.32747 60.2142 5.03125C60.5058 4.73047 60.6517 4.34082 60.6517 3.8623C60.6517 3.3929 60.5081 3.01465 60.221 2.72754C59.9339 2.44043 59.5557 2.29688 59.0863 2.29688H57.432V5.47559ZM64.3702 10.5V0.697266H70.3721V2.31055H66.2295V4.74414H69.7705V6.34375H66.2295V8.88672H70.5157V10.5H64.3702ZM72.4978 10.5V0.697266H76.1619C77.1645 0.697266 77.978 0.986654 78.6023 1.56543C79.2267 2.14421 79.5388 2.89616 79.5388 3.82129C79.5388 4.47754 79.3679 5.05859 79.0261 5.56445C78.6889 6.06576 78.2491 6.43717 77.7068 6.67871L79.8601 10.5H77.7752L75.9431 7H74.3572V10.5H72.4978ZM74.3572 5.40723H76.0252C76.5037 5.40723 76.891 5.27051 77.1873 4.99707C77.4835 4.71908 77.6316 4.32715 77.6316 3.82129C77.6316 3.37012 77.4858 3.00326 77.1941 2.7207C76.907 2.43815 76.5082 2.29688 75.9978 2.29688H74.3572V5.40723Z" fill="url(#paint0_linear_2334_17512)"/>
<defs>
<linearGradient id="paint0_linear_2334_17512" x1="-1" y1="-4.5" x2="36.8396" y2="39.6345" gradientUnits="userSpaceOnUse">
<stop stop-color="#73E6FF"/>
<stop offset="1" stop-color="#C4A2EF"/>
</linearGradient>
</defs>
</svg>
