<svg width="12" height="13" viewBox="0 0 12 13" fill="none" xmlns="http://www.w3.org/2000/svg">
<path d="M10.6437 3.32L10.6504 3.31333L8.17037 0.833333L7.4637 1.54L8.87037 2.94667C8.2437 3.18667 7.79704 3.78667 7.79704 4.5C7.79704 4.71887 7.84015 4.9356 7.92391 5.13781C8.00766 5.34002 8.13043 5.52375 8.28519 5.67851C8.59775 5.99107 9.02168 6.16667 9.46371 6.16667C9.7037 6.16667 9.92371 6.11333 10.1304 6.02667V10.8333C10.1304 11.0101 10.0601 11.1797 9.93511 11.3047C9.81009 11.4298 9.64052 11.5 9.46371 11.5C9.28689 11.5 9.11732 11.4298 8.9923 11.3047C8.86728 11.1797 8.79704 11.0101 8.79704 10.8333V7.83333C8.79704 7.47971 8.65656 7.14057 8.40651 6.89052C8.15646 6.64048 7.81733 6.5 7.4637 6.5H6.79704V1.83333C6.79704 1.47971 6.65656 1.14057 6.40651 0.890524C6.15647 0.640476 5.81733 0.5 5.4637 0.5H1.4637C1.11008 0.5 0.770944 0.640476 0.520895 0.890524C0.270847 1.14057 0.130371 1.47971 0.130371 1.83333V12.5H6.79704V7.5H7.79704V10.8333C7.79704 11.2754 7.97263 11.6993 8.28519 12.0118C8.59775 12.3244 9.02168 12.5 9.46371 12.5C9.68257 12.5 9.8993 12.4569 10.1015 12.3731C10.3037 12.2894 10.4875 12.1666 10.6422 12.0118C10.797 11.8571 10.9197 11.6733 11.0035 11.4711C11.0873 11.2689 11.1304 11.0522 11.1304 10.8333V4.5C11.1304 4.04 10.9437 3.62 10.6437 3.32ZM5.4637 7.5V11.1667H1.4637V6.5H5.4637V7.5ZM5.4637 5.16667H1.4637V1.83333H5.4637V5.16667ZM9.46371 5.16667C9.28689 5.16667 9.11732 5.09643 8.9923 4.9714C8.86728 4.84638 8.79704 4.67681 8.79704 4.5C8.79704 4.32319 8.86728 4.15362 8.9923 4.0286C9.11732 3.90357 9.28689 3.83333 9.46371 3.83333C9.64052 3.83333 9.81009 3.90357 9.93511 4.0286C10.0601 4.15362 10.1304 4.32319 10.1304 4.5C10.1304 4.67681 10.0601 4.84638 9.93511 4.9714C9.81009 5.09643 9.64052 5.16667 9.46371 5.16667Z" fill="#282828"/>
</svg>
