<svg width="19" height="19" viewBox="0 0 19 19" fill="none" xmlns="http://www.w3.org/2000/svg">
<path d="M2 0.130127C0.89 0.130127 0 1.03013 0 2.13013V16.1301C0 16.6606 0.210714 17.1693 0.585786 17.5443C0.960859 17.9194 1.46957 18.1301 2 18.1301H16C16.5304 18.1301 17.0391 17.9194 17.4142 17.5443C17.7893 17.1693 18 16.6606 18 16.1301V13.8501C18.59 13.5001 19 12.8701 19 12.1301V6.13013C19 5.39013 18.59 4.76013 18 4.41013V2.13013C18 1.59969 17.7893 1.09099 17.4142 0.715913C17.0391 0.340841 16.5304 0.130127 16 0.130127H2ZM2 2.13013H16V4.13013H10C9.46957 4.13013 8.96086 4.34084 8.58579 4.71591C8.21071 5.09099 8 5.59969 8 6.13013V12.1301C8 12.6606 8.21071 13.1693 8.58579 13.5443C8.96086 13.9194 9.46957 14.1301 10 14.1301H16V16.1301H2V2.13013ZM10 6.13013H17V12.1301H10V6.13013ZM13 7.63013C12.6022 7.63013 12.2206 7.78816 11.9393 8.06947C11.658 8.35077 11.5 8.7323 11.5 9.13013C11.5 9.52795 11.658 9.90948 11.9393 10.1908C12.2206 10.4721 12.6022 10.6301 13 10.6301C13.3978 10.6301 13.7794 10.4721 14.0607 10.1908C14.342 9.90948 14.5 9.52795 14.5 9.13013C14.5 8.7323 14.342 8.35077 14.0607 8.06947C13.7794 7.78816 13.3978 7.63013 13 7.63013Z" fill="white"/>
</svg>
