<svg width="10" height="10" viewBox="0 0 10 10" fill="none" xmlns="http://www.w3.org/2000/svg">
<path d="M5 0.0200195C2.25 0.0200195 0 2.26502 0 5.03002C0 7.53002 1.83 9.60502 4.22 9.98002V6.48002H2.95V5.03002H4.22V3.92502C4.22 2.67002 4.965 1.98002 6.11 1.98002C6.655 1.98002 7.225 2.07502 7.225 2.07502V3.31002H6.595C5.975 3.31002 5.78 3.69502 5.78 4.09002V5.03002H7.17L6.945 6.48002H5.78V9.98002C6.95822 9.79394 8.0311 9.19278 8.80496 8.28505C9.57882 7.37732 10.0027 6.22284 10 5.03002C10 2.26502 7.75 0.0200195 5 0.0200195Z" fill="white"/>
</svg>
