<svg width="20" height="19" viewBox="0 0 20 19" fill="none" xmlns="http://www.w3.org/2000/svg">
<path d="M9.21467 14C9.57467 12.5 10.4647 11.16 11.7147 10.25L10.9947 9.29L8.24467 12.83L6.28467 10.47L3.53467 14H9.21467ZM2.03467 2V16H9.06467C9.12467 16.7 9.27467 17.38 9.53467 18H2.03467C1.50467 18 0.994668 17.79 0.624668 17.41C0.244668 17.04 0.034668 16.53 0.034668 16V2C0.034668 0.9 0.934668 0 2.03467 0H16.0347C16.5647 0 17.0747 0.21 17.4447 0.59C17.8247 0.96 18.0347 1.47 18.0347 2V9.5C17.4147 9.24 16.7347 9.09 16.0347 9.03V2H2.03467ZM14.7847 19L12.0347 16L13.1947 14.84L14.7847 16.43L18.3747 12.84L19.5347 14.25L14.7847 19Z" fill="white"/>
</svg>
