<svg width="18" height="21" viewBox="0 0 18 21" fill="none" xmlns="http://www.w3.org/2000/svg">
<path d="M13 15.1301V12.1301H6V8.13013H13V5.13013L18 10.1301L13 15.1301ZM11 0.130127C11.5304 0.130127 12.0391 0.340841 12.4142 0.715913C12.7893 1.09099 13 1.59969 13 2.13013V4.13013H11V2.13013H2V18.1301H11V16.1301H13V18.1301C13 18.6606 12.7893 19.1693 12.4142 19.5443C12.0391 19.9194 11.5304 20.1301 11 20.1301H2C1.46957 20.1301 0.960859 19.9194 0.585786 19.5443C0.210714 19.1693 0 18.6606 0 18.1301V2.13013C0 1.59969 0.210714 1.09099 0.585786 0.715913C0.960859 0.340841 1.46957 0.130127 2 0.130127H11Z" fill="white"/>
</svg>
