<svg width="24" height="22" viewBox="0 0 24 22" fill="none" xmlns="http://www.w3.org/2000/svg">
<path d="M18.9891 8.05131L17.9851 8.23653C17.8583 8.25602 17.7609 8.34376 17.7121 8.46074C17.6146 8.69469 17.4489 8.88966 17.2442 9.02613L17.1857 9.06512C16.8738 8.99689 16.5423 8.95789 16.2109 8.95789C15.704 8.95789 15.2263 9.03588 14.7682 9.19185C14.3782 8.3925 13.8031 7.70038 13.1207 7.15448C13.1207 7.02776 13.1207 6.89128 13.1305 6.76455L13.1402 6.65733C13.15 6.40387 13.2377 6.16992 13.3937 5.96521C13.4717 5.85798 13.4912 5.73125 13.4522 5.61427L13.111 4.6492C13.0915 4.59071 13.111 4.51273 13.1597 4.47374L13.8811 3.8401C13.9103 3.81086 13.9591 3.80111 13.9883 3.80111L16.5813 3.83036C16.7471 3.83036 16.8933 3.75237 16.981 3.62564L17.293 3.16748L18.3263 3.23572L18.0143 4.04482C17.9168 4.29827 17.9363 4.57122 18.0728 4.80517L19.2913 6.89128C19.3108 6.93027 19.3108 6.96927 19.3108 7.00826L19.1256 7.94408C19.0964 7.99282 19.0476 8.04156 18.9891 8.05131Z" fill="white"/>
<path d="M22.4601 6.52079C22.4601 8.44118 21.5925 10.1666 20.2278 11.3071C19.7306 10.4201 18.941 9.70844 17.9954 9.30877C18.1124 9.18204 18.2099 9.04557 18.2976 8.89935L19.136 8.74337C19.4869 8.68489 19.7599 8.41194 19.8378 8.05125L20.0231 7.11543C20.062 6.90097 20.0328 6.68651 19.9158 6.5013L18.6973 4.41519C18.6778 4.3762 18.6681 4.32745 18.6876 4.27871L19.1067 3.17717C19.1652 3.03095 19.1457 2.86523 19.0677 2.7385C18.98 2.60203 18.8435 2.52404 18.6876 2.5143L17.2156 2.41681C17.0401 2.40707 16.8841 2.48505 16.7867 2.62153L16.465 3.08944L13.9889 3.07969H13.9792C13.7647 3.07969 13.56 3.15767 13.404 3.29415L12.6827 3.92778C12.4097 4.17148 12.3123 4.54191 12.4292 4.8831L12.7119 5.68245C12.5365 5.9554 12.439 6.27709 12.4292 6.60853V6.67676C11.6981 6.24784 10.8695 5.9749 9.99219 5.88716C10.3139 2.72875 12.9751 0.272217 16.2213 0.272217C19.6624 0.272217 22.4601 3.06994 22.4601 6.52079Z" fill="white"/>
<path d="M14.4082 10.0691C14.4082 10.0691 14.3984 10.0691 14.3984 10.0788C14.3887 10.0788 14.3887 10.0886 14.3789 10.0886V10.0983C14.3887 10.0983 14.3887 10.0886 14.3984 10.0886C14.4179 10.0788 14.4374 10.0691 14.4471 10.0593L14.4082 10.0691Z" fill="white"/>
<path d="M13.1799 15.489C13.1019 15.5767 13.0142 15.6547 12.9265 15.7327L12.9167 15.7425C12.8582 15.6645 12.8095 15.5767 12.7607 15.489H13.1799Z" fill="white"/>
<path d="M12.7607 15.489H13.1897C13.1117 15.5767 13.0239 15.6547 12.9362 15.7327L12.9265 15.7425C12.8582 15.6645 12.8095 15.5767 12.7607 15.489Z" fill="white"/>
<path d="M14.4471 10.0593C14.4276 10.0691 14.4179 10.0788 14.3984 10.0886C14.3887 10.0886 14.3887 10.0983 14.3789 10.0983V10.0886C14.3887 10.0886 14.3887 10.0788 14.3984 10.0788C14.3984 10.0788 14.4082 10.0788 14.4082 10.0691L14.4471 10.0593Z" fill="white"/>
<path d="M20.3542 14.446C20.2372 14.446 20.1202 14.4558 20.0032 14.4655C20.0325 14.3486 20.052 14.2316 20.0715 14.1146C20.091 13.9976 20.1007 13.8807 20.1007 13.7637C20.1007 13.6954 20.1007 13.637 20.1007 13.5687C20.1007 12.9058 19.935 12.2917 19.6523 11.7458C19.1649 10.8197 18.3363 10.1179 17.3225 9.81567C16.9911 9.71819 16.6401 9.6597 16.2794 9.64995C16.2502 9.64995 16.2112 9.64995 16.182 9.64995C16.1527 9.64995 16.1332 9.64995 16.104 9.64995C16.0845 9.64995 16.0747 9.64995 16.0552 9.64995C15.6946 9.6597 15.3534 9.71819 15.0317 9.81567C14.9245 9.84491 14.8172 9.88391 14.71 9.93265C14.6028 9.97164 14.5053 10.0204 14.4078 10.0691L14.4468 10.0594C14.4273 10.0691 14.4175 10.0789 14.398 10.0886C14.3883 10.0886 14.3883 10.0984 14.3786 10.0984V10.0886C14.3786 10.0886 14.3786 10.0886 14.3786 10.0789C14.3396 9.97164 14.3006 9.87416 14.2616 9.76693C14.2128 9.6597 14.1641 9.55247 14.1154 9.45499C13.8814 8.99682 13.589 8.57765 13.238 8.20722C12.9943 7.94402 12.7214 7.71006 12.4289 7.50535C11.7173 6.99845 10.8692 6.66701 9.95288 6.56953C9.81641 6.55978 9.67019 6.55003 9.53371 6.54028C9.48497 6.54028 9.44598 6.54028 9.39724 6.54028C9.35824 6.54028 9.31925 6.54028 9.28026 6.54028C6.62876 6.59877 4.44517 8.61664 4.15272 11.2097C4.14297 11.3266 4.13322 11.4436 4.12348 11.5606C4.12348 11.6386 4.11373 11.7263 4.11373 11.814C4.11373 11.8433 4.11373 11.8823 4.11373 11.9115C1.77417 12.3015 0 14.3388 0 16.7856C0 19.5151 2.21284 21.7279 4.94232 21.7279H20.3542C22.3623 21.7279 24 20.1 24 18.0919C24 16.0837 22.3623 14.446 20.3542 14.446ZM12.7604 15.4891H13.1893C13.1113 15.5768 13.0236 15.6548 12.9358 15.7328L12.9261 15.7426C12.8578 15.6646 12.8091 15.5768 12.7604 15.4891Z" fill="white"/>
<path d="M13.1799 15.489C13.1019 15.5767 13.0142 15.6547 12.9265 15.7327L12.9167 15.7425C12.8582 15.6645 12.8095 15.5767 12.7607 15.489H13.1799Z" fill="white"/>
<path d="M14.3886 10.0789H14.3691C14.3691 10.0789 14.3691 10.0789 14.3691 10.0886C14.3789 10.0886 14.3789 10.0789 14.3886 10.0789C14.3984 10.0789 14.3984 10.0789 14.4081 10.0789H14.3886Z" fill="white"/>
</svg>
