<svg width="19" height="20" viewBox="0 0 19 20" fill="none" xmlns="http://www.w3.org/2000/svg">
<path d="M7.03467 15V12H0.034668V8H7.03467V5L12.0347 10L7.03467 15ZM7.03467 0H16.0347C16.5651 0 17.0738 0.210714 17.4489 0.585786C17.824 0.960859 18.0347 1.46957 18.0347 2V18C18.0347 18.5304 17.824 19.0391 17.4489 19.4142C17.0738 19.7893 16.5651 20 16.0347 20H7.03467C6.50423 20 5.99553 19.7893 5.62045 19.4142C5.24538 19.0391 5.03467 18.5304 5.03467 18V16H7.03467V18H16.0347V2H7.03467V4H5.03467V2C5.03467 1.46957 5.24538 0.960859 5.62045 0.585786C5.99553 0.210714 6.50423 0 7.03467 0Z" fill="#FFFFFF"/>
</svg>
