<svg width="12" height="12" viewBox="0 0 12 12" fill="none" xmlns="http://www.w3.org/2000/svg">
<path d="M10.6737 5.55024H6.08867V6.91524H9.34367C9.17867 8.82024 7.59367 9.63525 6.09367 9.63525C4.17867 9.63525 2.49867 8.12525 2.49867 6.00024C2.49867 3.95024 4.09867 2.36524 6.09867 2.36524C7.64367 2.36524 8.54867 3.35024 8.54867 3.35024L9.49867 2.36024C9.49867 2.36024 8.27867 1.00024 6.04867 1.00024C3.20867 1.00024 1.01367 3.40024 1.01367 6.00024C1.01367 8.52525 3.07867 11.0002 6.12367 11.0002C8.79867 11.0002 10.7487 9.16525 10.7487 6.45524C10.7487 5.88024 10.6737 5.55024 10.6737 5.55024Z" fill="white"/>
</svg>
