<svg width="16" height="23" viewBox="0 0 16 23" fill="none" xmlns="http://www.w3.org/2000/svg">
<path d="M8 17.1301C6.4087 17.1301 4.88258 16.498 3.75736 15.3728C2.63214 14.2476 2 12.7214 2 11.1301C2 10.1301 2.25 9.16013 2.7 8.33013L1.24 6.87013C0.46 8.10013 0 9.56013 0 11.1301C0 13.2519 0.842855 15.2867 2.34315 16.787C3.84344 18.2873 5.87827 19.1301 8 19.1301V22.1301L12 18.1301L8 14.1301M8 3.13013V0.130127L4 4.13013L8 8.13013V5.13013C9.5913 5.13013 11.1174 5.76227 12.2426 6.88749C13.3679 8.0127 14 9.53883 14 11.1301C14 12.1301 13.75 13.1001 13.3 13.9301L14.76 15.3901C15.54 14.1601 16 12.7001 16 11.1301C16 9.0084 15.1571 6.97356 13.6569 5.47327C12.1566 3.97298 10.1217 3.13013 8 3.13013Z" fill="white"/>
</svg>
