<svg width="246" height="135" viewBox="0 0 246 135" fill="none" xmlns="http://www.w3.org/2000/svg">
<g clip-path="url(#clip0_123_457)">
<path d="M26.4994 78.5553H34.5644V71.3282H27.0231C20.7386 71.3282 18.5391 67.8718 18.5391 62.0063V31.1079H35.2976V24.0902H18.5391V8.27441H10.7883V21.367C10.7883 23.1476 9.63613 24.0902 8.16976 24.0902H0V31.1079H10.2646V62.1111C10.2646 73.1088 16.4443 78.5553 26.4994 78.5553Z" fill="white"/>
<path d="M72.9786 79.9169C85.7569 79.9169 95.2883 72.6898 98.3258 62.5299H89.7371C87.2233 68.9191 80.3104 72.3755 73.0833 72.3755C61.8761 72.3755 54.8585 65.1484 54.4395 54.2554H98.8495V50.5895C98.8495 34.8784 89.0039 22.7285 72.4549 22.7285C57.5817 22.7285 45.7461 33.9357 45.7461 51.3227C45.7461 67.6622 56.3249 79.9169 72.9786 79.9169ZM54.649 46.9236C55.4869 36.8685 63.3425 30.2698 72.4549 30.2698C81.6721 30.2698 89.3181 36.0306 90.0513 46.9236H54.649Z" fill="white"/>
<path d="M121.175 78.5554H125.155V71.2236H122.641C120.023 71.2236 118.661 69.6525 118.661 66.9292V0H110.387V66.9292C110.387 74.3658 114.367 78.5554 121.175 78.5554Z" fill="white"/>
<path d="M224.142 79.9169C236.815 79.9169 245.299 73.004 245.299 62.7394C245.299 40.2202 212.62 51.7416 212.62 37.9159C212.62 33.2026 217.019 29.8509 223.827 29.8509C231.054 29.8509 234.93 33.3073 235.663 38.4396H243.623C242.785 28.594 234.406 22.7285 224.351 22.7285C212.934 22.7285 204.66 28.6987 204.66 37.9159C204.66 59.4924 237.234 47.8662 237.234 63.1584C237.234 68.7096 232.73 72.6898 224.56 72.6898C216.6 72.6898 211.992 69.2333 211.049 62.7394H202.984C203.927 72.8992 211.258 79.9169 224.142 79.9169Z" fill="white"/>
<path d="M162.891 79.7828C178.847 79.7828 191.782 66.8477 191.782 50.8914C191.782 34.9351 178.847 22 162.891 22C146.935 22 134 34.9351 134 50.8914C134 66.8477 146.935 79.7828 162.891 79.7828Z" fill="url(#paint0_linear_123_457)"/>
<g filter="url(#filter0_i_123_457)">
<path d="M162.891 79.7828C178.847 79.7828 191.782 66.8477 191.782 50.8914C191.782 34.9351 178.847 22 162.891 22C146.935 22 134 34.9351 134 50.8914C134 66.8477 146.935 79.7828 162.891 79.7828Z" fill="url(#paint1_linear_123_457)"/>
</g>
<path d="M162.891 79.1892C178.519 79.1892 191.189 66.5198 191.189 50.8914C191.189 35.2631 178.519 22.5938 162.891 22.5938C147.263 22.5938 134.593 35.2631 134.593 50.8914C134.593 66.5198 147.263 79.1892 162.891 79.1892Z" stroke="url(#paint2_linear_123_457)" stroke-opacity="0.12" stroke-width="1.1875"/>
</g>
<path d="M105.773 125H109.875L116.008 101.914H116.242L122.375 125H126.477L133.469 97.6562H130.07L124.484 121.133H124.25L118.117 97.6562H114.133L108 121.133H107.766L102.18 97.6562H98.7813L105.773 125ZM134.258 125H137.578L140.039 118.516H153.242L155.703 125H159.024L148.516 97.6562H144.805L134.258 125ZM141.133 115.625L146.524 101.328H146.758L152.149 115.625H141.133ZM163.704 125H178.665V122.148H166.868V97.6562H163.704V125ZM184.533 125H199.494V122.148H187.697V97.6562H184.533V125ZM205.361 125H221.376V122.148H208.525V112.5H219.228V109.648H208.525V100.547H220.947V97.6562H205.361V125ZM232.844 125H236.008V100.547H244.367V97.6562H224.485V100.547H232.844V125Z" fill="white"/>
<defs>
<filter id="filter0_i_123_457" x="124.5" y="22" width="67.2827" height="57.7827" filterUnits="userSpaceOnUse" color-interpolation-filters="sRGB">
<feFlood flood-opacity="0" result="BackgroundImageFix"/>
<feBlend mode="normal" in="SourceGraphic" in2="BackgroundImageFix" result="shape"/>
<feColorMatrix in="SourceAlpha" type="matrix" values="0 0 0 0 0 0 0 0 0 0 0 0 0 0 0 0 0 0 127 0" result="hardAlpha"/>
<feOffset dx="-14.25"/>
<feGaussianBlur stdDeviation="4.75"/>
<feComposite in2="hardAlpha" operator="arithmetic" k2="-1" k3="1"/>
<feColorMatrix type="matrix" values="0 0 0 0 0.682353 0 0 0 0 0.45098 0 0 0 0 0.980392 0 0 0 0.56 0"/>
<feBlend mode="normal" in2="shape" result="effect1_innerShadow_123_457"/>
</filter>
<linearGradient id="paint0_linear_123_457" x1="162.891" y1="22" x2="162.891" y2="79.7829" gradientUnits="userSpaceOnUse">
<stop stop-color="#130C3F"/>
<stop offset="1" stop-color="#15197B"/>
</linearGradient>
<linearGradient id="paint1_linear_123_457" x1="134" y1="50.8914" x2="191.783" y2="50.8914" gradientUnits="userSpaceOnUse">
<stop stop-color="#AE73FA"/>
<stop offset="1" stop-color="#AE73FA" stop-opacity="0"/>
</linearGradient>
<linearGradient id="paint2_linear_123_457" x1="191.783" y1="50.8915" x2="134" y2="50.8915" gradientUnits="userSpaceOnUse">
<stop stop-color="#AE73FA"/>
<stop offset="1" stop-color="#AE73FA" stop-opacity="0"/>
</linearGradient>
<clipPath id="clip0_123_457">
<rect width="246" height="80" fill="white"/>
</clipPath>
</defs>
</svg>
