<svg width="19" height="18" viewBox="0 0 19 18" fill="none" xmlns="http://www.w3.org/2000/svg">
<path d="M17 7.26087L17.6956 7.95652L16.3043 9.34783L17.6956 13.5217L17 17L12.8261 15.6087L10.7391 17H7.95652L5.86956 15.6087L1.69565 17L1 13.5217L2.3913 9.34783L1 7.95652L1.69565 7.26087L1 3.78261L1.69565 1L6.56522 3.78261H12.1304L17 1L17.6956 3.78261L17 7.26087Z" stroke="white" stroke-width="0.899104"/>
<path d="M12.1305 3.78255L11.4348 6.56516L10.7392 12.1304H7.95657L7.26092 6.56516L6.56527 3.78255" stroke="white" stroke-width="0.899104"/>
<path d="M7.95626 12.1305L5.8693 15.6088" stroke="white" stroke-width="0.899104"/>
<path d="M10.7391 12.1305L12.8261 15.6088" stroke="white" stroke-width="0.899104"/>
<path d="M9.34782 14.913V17" stroke="white" stroke-width="0.899104"/>
<path d="M2.39144 9.34779L7.26101 6.56519" stroke="white" stroke-width="0.899104"/>
<path d="M11.4347 6.56519L16.3043 9.34779" stroke="white" stroke-width="0.899104"/>
<path d="M7.95662 12.1304L4.47836 10.7391" stroke="white" stroke-width="0.899104"/>
<path d="M10.7391 12.1304L14.2174 10.7391" stroke="white" stroke-width="0.899104"/>
</svg>
