<svg width="66" height="92" viewBox="0 0 66 92" fill="none" xmlns="http://www.w3.org/2000/svg">
<g filter="url(#filter0_i)">
<rect x="0.5" y="2" width="65" height="90" rx="32.5" fill="url(#paint0_linear)"/>
</g>
<path d="M17.5 50L29.6244 57C27.6914 60.348 23.4102 61.4952 20.0622 59.5622C16.7141 57.6292 15.567 53.348 17.5 50Z" fill="white"/>
<path d="M47.1245 50L35.0002 57C36.9332 60.348 41.2143 61.4952 44.5623 59.5622C47.9104 57.6292 49.0575 53.348 47.1245 50Z" fill="white"/>
<path d="M1 46.5V2L10.5 11.5" stroke="#31C1EE" stroke-width="1.5" stroke-miterlimit="10" stroke-linecap="square"/>
<path d="M64.5 46.5V2L55 11.5" stroke="#31C1EE" stroke-width="1.5" stroke-miterlimit="10" stroke-linecap="square"/>
<path d="M13 85.5V65.5L33 71.5L53 65.5V85.5" stroke="#31C1EE" stroke-width="1.5" stroke-miterlimit="10" stroke-linecap="square"/>
<defs>
<filter id="filter0_i" x="-7.27778" y="2" width="72.7778" height="90" filterUnits="userSpaceOnUse" color-interpolation-filters="sRGB">
<feFlood flood-opacity="0" result="BackgroundImageFix"/>
<feBlend mode="normal" in="SourceGraphic" in2="BackgroundImageFix" result="shape"/>
<feColorMatrix in="SourceAlpha" type="matrix" values="0 0 0 0 0 0 0 0 0 0 0 0 0 0 0 0 0 0 127 0" result="hardAlpha"/>
<feOffset dx="-11.6667"/>
<feGaussianBlur stdDeviation="3.88889"/>
<feComposite in2="hardAlpha" operator="arithmetic" k2="-1" k3="1"/>
<feColorMatrix type="matrix" values="0 0 0 0 0.190556 0 0 0 0 0.755066 0 0 0 0 0.933333 0 0 0 0.56 0"/>
<feBlend mode="normal" in2="shape" result="effect1_innerShadow"/>
</filter>
<linearGradient id="paint0_linear" x1="0.5" y1="47" x2="65.5" y2="47" gradientUnits="userSpaceOnUse">
<stop stop-color="#31C1EE"/>
<stop offset="1" stop-color="#29CCFF" stop-opacity="0"/>
</linearGradient>
</defs>
</svg>
