<svg xmlns="http://www.w3.org/2000/svg" viewBox="0 0 494.42 494.44"><defs><style>.cls-1{fill:#f5f7e2;}.cls-2{fill:#f66;}.cls-3{fill:#d95e59;}.cls-4{fill:#571aff;}.cls-5{fill:#fff;}</style></defs><g id="Layer_2" data-name="Layer 2"><g id="Layer_1-2" data-name="Layer 1"><g id="Artboard"><g id="pTokens-icon"><path id="Path" class="cls-1" d="M115.55,115.56c-72.71,72.71-72.71,190.61,0,263.32s190.61,72.71,263.32,0,72.71-190.61,0-263.32S188.26,42.85,115.55,115.56Z"/><path class="cls-2" d="M72.21,247.22A175,175,0,0,1,371,123.48L422,72.41C325.48-24.14,169-24.14,72.41,72.41s-96.55,253.07,0,349.61L123.47,371A174.45,174.45,0,0,1,72.21,247.22Z"/><path class="cls-3" d="M422,72.39l-51.07,51.07a175,175,0,0,1-7.88,254.91A247.33,247.33,0,0,1,422,422C518.56,325.48,518.56,168.94,422,72.39Z"/><path class="cls-3" d="M123.47,371,72.41,422a246.87,246.87,0,0,1,59-43.65C128.66,376,126,373.52,123.47,371Z"/><path id="Path-2" data-name="Path" class="cls-1" d="M422,422c-96.52,96.55-253,96.55-349.6,0C169,325.48,325.49,325.48,422,422Z"/></g></g><circle class="cls-4" cx="247.48" cy="247.19" r="145.1"/><path class="cls-5" d="M302.79,316c3.84-2.3,6.32-5.11,5.86-9.91-.29-3.12,1.12-4.58,4.48-5,9-1,17.87-2.59,26.83-3.6,4.4-.5,6.58-2.2,7.25-6.85,1.75-12.09,4-24.11,6.09-36.15a14.65,14.65,0,0,0-2.74-11.6c-12.91-18.51-25.53-37.22-38.41-55.75-1.87-2.69-2-4.72-.41-7.57q7.89-14,15.29-28.27c3-5.72,1.52-8.29-4.75-8.37-13.54-.17-27.09-.11-40.64,0-3.79,0-6.88,1.55-8.57,5.31-1,2.22-2.53,4.22-3.44,6.47-1.45,3.59-3.71,4.8-7.71,4.75-21.07-.23-42.15.05-63.22-.2a23.18,23.18,0,0,0-16.3,6.22c-7.78,6.82-15.47,13.77-23.5,20.28-4,3.28-5,6.52-2.79,11.2,3.64,7.83,6.83,15.87,10.51,23.69,1.38,3,1.65,5.07-1.29,7.15-4.42,3.14-5.52,7.74-5.41,12.92.15,7.53,0,15,0,22.58h.24c0,4.89.28,9.8-.06,14.67-.59,8.64,1.3,16.65,4.38,24.69,6.4,16.67,12.22,33.55,18.29,50.34,2.31,6.41,3.92,7.32,10.47,5.83,12.1-2.75,24.07-6.39,36.31-8.13a123.52,123.52,0,0,0,62.5-27.41A88,88,0,0,1,302.79,316Zm-95,29.66a89.29,89.29,0,0,0-12.08,2.77c-3.52,1.2-4.55-.25-5.6-3.19-6.4-18.06-12.94-36.07-19.48-54.08a20.66,20.66,0,0,1-1-7.19c0-14.11,0-28.22-.19-42.32a9.49,9.49,0,0,1,3.42-7.79c6.86-6.38,7-7.44,3-16.06-3.15-6.82-6.24-13.68-9.52-20.43-1.22-2.5-1.34-4.16,1.09-6.18,7.82-6.47,15.42-13.22,23.07-19.9,1.44-1.26,2.85-2.3,4.94-2.28q36.09.24,72.18.39l1.27,0c6-1.78,7.78-7.25,10.15-12,1.68-3.38,3.63-5,7.72-4.8,7.5.41,15,.12,22.56.13,4.13,0,5.51,1.36,3.18,5.42-3.84,6.68-7.17,13.65-11.08,20.28-2.46,4.17-2,7.48.71,11.36,13.2,19,26.12,38.16,39.31,57.15a10.29,10.29,0,0,1,1.91,8.36q-2.6,14.41-4.82,28.91c-.43,2.8-1.49,4.14-4.52,4.49-9,1-17.84,2.86-26.82,3.54-5.7.43-7.83,3.29-7.6,8.18.25,5.3-2.18,8.42-6.59,10.58a7.88,7.88,0,0,0-1.87,1.26C267.61,333.87,237.79,339.94,207.84,345.68Z"/></g></g></svg>