<svg width="105" height="32" viewBox="0 0 105 32" fill="none" xmlns="http://www.w3.org/2000/svg">
<path d="M1.71641 20H2.85041V16.122H5.23041C6.95241 16.122 8.22641 14.904 8.22641 13.14C8.22641 11.362 7.00841 10.2 5.23041 10.2H1.71641V20ZM2.85041 15.114V11.208H5.13241C6.30841 11.208 7.06441 12.02 7.06441 13.14C7.06441 14.274 6.30841 15.114 5.13241 15.114H2.85041ZM12.629 20.182C13.763 20.182 14.547 19.594 14.855 18.936H14.939V20H16.045V12.72H14.939V17.088C14.939 18.292 14.043 19.174 12.895 19.174C11.873 19.174 11.019 18.418 11.019 17.256V12.72H9.91297V17.298C9.91297 18.908 10.935 20.182 12.629 20.182ZM18.4202 20H19.5262V16.248C19.5262 14.862 20.2682 13.826 21.5982 13.826H22.2002V12.72H21.5842C20.5202 12.72 19.8062 13.462 19.5962 14.078H19.5122V12.72H18.4202V20ZM26.9302 20.182C28.5122 20.182 29.9962 19.23 30.3742 17.606H29.2402C28.9602 18.558 28.0222 19.174 26.9722 19.174C25.4462 19.174 24.3402 17.998 24.3402 16.36C24.3402 14.778 25.3902 13.546 26.9442 13.546C27.9942 13.546 28.9182 14.162 29.2122 15.114H30.3602C29.9682 13.49 28.4982 12.538 26.9162 12.538C24.7742 12.538 23.1922 14.204 23.1922 16.36C23.1922 18.516 24.7322 20.182 26.9302 20.182ZM32.3381 20H33.4441V15.576C33.4441 14.4 34.3961 13.574 35.5161 13.574C36.5381 13.574 37.4201 14.33 37.4201 15.492V20H38.5261V15.422C38.5261 13.812 37.4761 12.538 35.7821 12.538C34.6481 12.538 33.8361 13.126 33.5281 13.784H33.4441V9.5H32.3381V20ZM43.9764 20.182C45.5584 20.182 46.3144 19.118 46.4964 18.852H46.5804V20H47.6444V12.72H46.5384V13.896H46.4544C46.2304 13.518 45.4184 12.538 43.8924 12.538C41.8344 12.538 40.3504 14.134 40.3504 16.374C40.3504 18.6 41.8344 20.182 43.9764 20.182ZM44.0464 19.188C42.5204 19.188 41.4844 18.082 41.4844 16.374C41.4844 14.722 42.5204 13.546 44.0184 13.546C45.4604 13.546 46.5804 14.582 46.5804 16.374C46.5804 17.9 45.6284 19.188 44.0464 19.188ZM52.4375 20.182C54.1315 20.182 55.2655 19.258 55.2655 17.886C55.2655 14.876 50.8975 16.416 50.8975 14.568C50.8975 13.938 51.4855 13.49 52.3955 13.49C53.3615 13.49 53.8795 13.952 53.9775 14.638H55.0415C54.9295 13.322 53.8095 12.538 52.4655 12.538C50.9395 12.538 49.8335 13.336 49.8335 14.568C49.8335 17.452 54.1875 15.898 54.1875 17.942C54.1875 18.684 53.5855 19.216 52.4935 19.216C51.4295 19.216 50.8135 18.754 50.6875 17.886H49.6095C49.7355 19.244 50.7155 20.182 52.4375 20.182ZM60.5197 20.182C62.2277 20.182 63.5017 19.216 63.9077 17.858H62.7597C62.4237 18.712 61.4997 19.174 60.5337 19.174C59.0357 19.174 58.0977 18.208 58.0417 16.752H63.9777V16.262C63.9777 14.162 62.6617 12.538 60.4497 12.538C58.4617 12.538 56.8797 14.036 56.8797 16.36C56.8797 18.544 58.2937 20.182 60.5197 20.182ZM58.0697 15.772C58.1817 14.428 59.2317 13.546 60.4497 13.546C61.6817 13.546 62.7037 14.316 62.8017 15.772H58.0697Z" fill="white"/>
<circle cx="89" cy="16" r="16" fill="#8946DF"/>
<path d="M89 11V21" stroke="#28185C" stroke-width="2" stroke-miterlimit="10" stroke-linecap="square" stroke-linejoin="round"/>
<path d="M84 16H94" stroke="#28185C" stroke-width="2" stroke-miterlimit="10" stroke-linecap="square" stroke-linejoin="round"/>
</svg>
