<svg width="70" height="37" viewBox="0 0 70 37" fill="none" xmlns="http://www.w3.org/2000/svg">
<path d="M7.56201 22.417H9.8635V20.3547H7.71146C5.9181 20.3547 5.29042 19.3683 5.29042 17.6945V8.87715H10.0727V6.87456H5.29042V2.36126H3.07861V6.09744C3.07861 6.60555 2.74982 6.87456 2.33137 6.87456H0V8.87715H2.92916V17.7244C2.92916 20.8628 4.69263 22.417 7.56201 22.417Z" fill="white"/>
<path d="M20.8257 22.8056C24.4722 22.8056 27.1921 20.7432 28.0589 17.844H25.608C24.8906 19.6672 22.9179 20.6536 20.8556 20.6536C17.6574 20.6536 15.6548 18.5912 15.5352 15.4827H28.2083V14.4366C28.2083 9.95317 25.3987 6.486 20.6762 6.486C16.4319 6.486 13.0544 9.68416 13.0544 14.6458C13.0544 19.3085 16.0732 22.8056 20.8257 22.8056ZM15.595 13.3904C15.8341 10.5211 18.0758 8.63803 20.6762 8.63803C23.3065 8.63803 25.4884 10.2819 25.6976 13.3904H15.595Z" fill="white"/>
<path d="M34.5792 22.417H35.715V20.3248H34.9977C34.2504 20.3248 33.8619 19.8764 33.8619 19.0993V0H31.5006V19.0993C31.5006 21.2215 32.6364 22.417 34.5792 22.417Z" fill="white"/>
<path d="M63.9623 22.8056C67.579 22.8056 70 20.8329 70 17.9037C70 11.4775 60.6745 14.7654 60.6745 10.82C60.6745 9.47494 61.9299 8.51848 63.8727 8.51848C65.935 8.51848 67.0409 9.50483 67.2502 10.9694H69.5218C69.2827 8.1598 66.8915 6.486 64.0221 6.486C60.7642 6.486 58.4029 8.18969 58.4029 10.82C58.4029 16.9772 67.6985 13.6595 67.6985 18.0233C67.6985 19.6074 66.4133 20.7432 64.0819 20.7432C61.8103 20.7432 60.4952 19.7569 60.2262 17.9037H57.9247C58.1937 20.803 60.2859 22.8056 63.9623 22.8056Z" fill="white"/>
<g filter="url(#filter0_i)">
<circle cx="46.6233" cy="14.5847" r="8.24463" fill="url(#paint0_linear)"/>
</g>
<circle cx="46.6233" cy="14.5847" r="8.00258" stroke="url(#paint1_linear)" stroke-opacity="0.12" stroke-width="0.484104"/>
<path d="M25.3733 36H26.2133L27.4693 31.272H27.5173L28.7733 36H29.6133L31.0453 30.4H30.3493L29.2053 35.208H29.1573L27.9013 30.4H27.0853L25.8293 35.208H25.7812L24.6373 30.4H23.9413L25.3733 36ZM34.4069 36H35.0869L35.5909 34.672H38.2949L38.7989 36H39.4789L37.3269 30.4H36.5669L34.4069 36ZM35.8149 34.08L36.9189 31.152H36.9669L38.0709 34.08H35.8149ZM43.6375 36H46.7015V35.416H44.2855V30.4H43.6375V36ZM51.1031 36H54.1671V35.416H51.7511V30.4H51.1031V36ZM58.5687 36H61.8487V35.416H59.2167V33.44H61.4087V32.856H59.2167V30.992H61.7607V30.4H58.5687V36ZM67.3973 36H68.0453V30.992H69.7573V30.4H65.6853V30.992H67.3973V36Z" fill="#CBCAF9"/>
<path d="M25.3733 36L24.4044 36.2477L24.5968 37H25.3733V36ZM26.2133 36V37H26.9823L27.1797 36.2567L26.2133 36ZM27.4693 31.272V30.272H26.7002L26.5028 31.0153L27.4693 31.272ZM27.5173 31.272L28.4837 31.0153L28.2863 30.272H27.5173V31.272ZM28.7733 36L27.8068 36.2567L28.0042 37H28.7733V36ZM29.6133 36V37H30.3897L30.5821 36.2477L29.6133 36ZM31.0452 30.4L32.0141 30.6477L32.3331 29.4H31.0452V30.4ZM30.3493 30.4V29.4H29.5593L29.3764 30.1685L30.3493 30.4ZM29.2053 35.208V36.208H29.9952L30.1781 35.4395L29.2053 35.208ZM29.1573 35.208L28.1897 35.4607L28.3849 36.208H29.1573V35.208ZM27.9013 30.4L28.8688 30.1473L28.6736 29.4H27.9013V30.4ZM27.0852 30.4V29.4H26.3129L26.1177 30.1473L27.0852 30.4ZM25.8293 35.208V36.208H26.6016L26.7968 35.4607L25.8293 35.208ZM25.7812 35.208L24.8084 35.4395L24.9913 36.208H25.7812V35.208ZM24.6373 30.4L25.6101 30.1685L25.4272 29.4H24.6373V30.4ZM23.9413 30.4V29.4H22.6534L22.9724 30.6477L23.9413 30.4ZM25.3733 37H26.2133V35H25.3733V37ZM27.1797 36.2567L28.4357 31.5287L26.5028 31.0153L25.2468 35.7433L27.1797 36.2567ZM27.4693 32.272H27.5173V30.272H27.4693V32.272ZM26.5508 31.5287L27.8068 36.2567L29.7397 35.7433L28.4837 31.0153L26.5508 31.5287ZM28.7733 37H29.6133V35H28.7733V37ZM30.5821 36.2477L32.0141 30.6477L30.0764 30.1523L28.6444 35.7523L30.5821 36.2477ZM31.0452 29.4H30.3493V31.4H31.0452V29.4ZM29.3764 30.1685L28.2324 34.9765L30.1781 35.4395L31.3221 30.6315L29.3764 30.1685ZM29.2053 34.208H29.1573V36.208H29.2053V34.208ZM30.1248 34.9553L28.8688 30.1473L26.9337 30.6527L28.1897 35.4607L30.1248 34.9553ZM27.9013 29.4H27.0852V31.4H27.9013V29.4ZM26.1177 30.1473L24.8617 34.9553L26.7968 35.4607L28.0528 30.6527L26.1177 30.1473ZM25.8293 34.208H25.7812V36.208H25.8293V34.208ZM26.7541 34.9765L25.6101 30.1685L23.6644 30.6315L24.8084 35.4395L26.7541 34.9765ZM24.6373 29.4H23.9413V31.4H24.6373V29.4ZM22.9724 30.6477L24.4044 36.2477L26.3421 35.7523L24.9101 30.1523L22.9724 30.6477ZM34.4069 36L33.4739 35.6401L32.9494 37H34.4069V36ZM35.0869 36V37H35.777L36.0218 36.3548L35.0869 36ZM35.5909 34.672V33.672H34.9008L34.6559 34.3172L35.5909 34.672ZM38.2949 34.672L39.2298 34.3172L38.985 33.672H38.2949V34.672ZM38.7989 36L37.8639 36.3548L38.1088 37H38.7989V36ZM39.4789 36V37H40.9345L40.4123 35.6413L39.4789 36ZM37.3269 30.4L38.2603 30.0413L38.0139 29.4H37.3269V30.4ZM36.5669 30.4V29.4H35.8808L35.6339 30.0401L36.5669 30.4ZM35.8149 34.08L34.8792 33.7272L34.3691 35.08H35.8149V34.08ZM36.9189 31.152V30.152H36.2272L35.9832 30.7992L36.9189 31.152ZM36.9669 31.152L37.9026 30.7992L37.6585 30.152H36.9669V31.152ZM38.0709 34.08V35.08H39.5166L39.0066 33.7272L38.0709 34.08ZM34.4069 37H35.0869V35H34.4069V37ZM36.0218 36.3548L36.5258 35.0268L34.6559 34.3172L34.1519 35.6452L36.0218 36.3548ZM35.5909 35.672H38.2949V33.672H35.5909V35.672ZM37.3599 35.0268L37.8639 36.3548L39.7338 35.6452L39.2298 34.3172L37.3599 35.0268ZM38.7989 37H39.4789V35H38.7989V37ZM40.4123 35.6413L38.2603 30.0413L36.3934 30.7587L38.5454 36.3587L40.4123 35.6413ZM37.3269 29.4H36.5669V31.4H37.3269V29.4ZM35.6339 30.0401L33.4739 35.6401L35.3399 36.3599L37.4999 30.7599L35.6339 30.0401ZM36.7506 34.4328L37.8546 31.5048L35.9832 30.7992L34.8792 33.7272L36.7506 34.4328ZM36.9189 32.152H36.9669V30.152H36.9189V32.152ZM36.0312 31.5048L37.1352 34.4328L39.0066 33.7272L37.9026 30.7992L36.0312 31.5048ZM38.0709 33.08H35.8149V35.08H38.0709V33.08ZM43.6375 36H42.6375V37H43.6375V36ZM46.7015 36V37H47.7015V36H46.7015ZM46.7015 35.416H47.7015V34.416H46.7015V35.416ZM44.2855 35.416H43.2855V36.416H44.2855V35.416ZM44.2855 30.4H45.2855V29.4H44.2855V30.4ZM43.6375 30.4V29.4H42.6375V30.4H43.6375ZM43.6375 37H46.7015V35H43.6375V37ZM47.7015 36V35.416H45.7015V36H47.7015ZM46.7015 34.416H44.2855V36.416H46.7015V34.416ZM45.2855 35.416V30.4H43.2855V35.416H45.2855ZM44.2855 29.4H43.6375V31.4H44.2855V29.4ZM42.6375 30.4V36H44.6375V30.4H42.6375ZM51.1031 36H50.1031V37H51.1031V36ZM54.1671 36V37H55.1671V36H54.1671ZM54.1671 35.416H55.1671V34.416H54.1671V35.416ZM51.7511 35.416H50.7511V36.416H51.7511V35.416ZM51.7511 30.4H52.7511V29.4H51.7511V30.4ZM51.1031 30.4V29.4H50.1031V30.4H51.1031ZM51.1031 37H54.1671V35H51.1031V37ZM55.1671 36V35.416H53.1671V36H55.1671ZM54.1671 34.416H51.7511V36.416H54.1671V34.416ZM52.7511 35.416V30.4H50.7511V35.416H52.7511ZM51.7511 29.4H51.1031V31.4H51.7511V29.4ZM50.1031 30.4V36H52.1031V30.4H50.1031ZM58.5687 36H57.5687V37H58.5687V36ZM61.8488 36V37H62.8488V36H61.8488ZM61.8488 35.416H62.8488V34.416H61.8488V35.416ZM59.2168 35.416H58.2168V36.416H59.2168V35.416ZM59.2168 33.44V32.44H58.2168V33.44H59.2168ZM61.4087 33.44V34.44H62.4087V33.44H61.4087ZM61.4087 32.856H62.4087V31.856H61.4087V32.856ZM59.2168 32.856H58.2168V33.856H59.2168V32.856ZM59.2168 30.992V29.992H58.2168V30.992H59.2168ZM61.7607 30.992V31.992H62.7607V30.992H61.7607ZM61.7607 30.4H62.7607V29.4H61.7607V30.4ZM58.5687 30.4V29.4H57.5687V30.4H58.5687ZM58.5687 37H61.8488V35H58.5687V37ZM62.8488 36V35.416H60.8488V36H62.8488ZM61.8488 34.416H59.2168V36.416H61.8488V34.416ZM60.2168 35.416V33.44H58.2168V35.416H60.2168ZM59.2168 34.44H61.4087V32.44H59.2168V34.44ZM62.4087 33.44V32.856H60.4087V33.44H62.4087ZM61.4087 31.856H59.2168V33.856H61.4087V31.856ZM60.2168 32.856V30.992H58.2168V32.856H60.2168ZM59.2168 31.992H61.7607V29.992H59.2168V31.992ZM62.7607 30.992V30.4H60.7607V30.992H62.7607ZM61.7607 29.4H58.5687V31.4H61.7607V29.4ZM57.5687 30.4V36H59.5687V30.4H57.5687ZM67.3973 36H66.3973V37H67.3973V36ZM68.0453 36V37H69.0453V36H68.0453ZM68.0453 30.992V29.992H67.0453V30.992H68.0453ZM69.7573 30.992V31.992H70.7573V30.992H69.7573ZM69.7573 30.4H70.7573V29.4H69.7573V30.4ZM65.6853 30.4V29.4H64.6853V30.4H65.6853ZM65.6853 30.992H64.6853V31.992H65.6853V30.992ZM67.3973 30.992H68.3973V29.992H67.3973V30.992ZM67.3973 37H68.0453V35H67.3973V37ZM69.0453 36V30.992H67.0453V36H69.0453ZM68.0453 31.992H69.7573V29.992H68.0453V31.992ZM70.7573 30.992V30.4H68.7573V30.992H70.7573ZM69.7573 29.4H65.6853V31.4H69.7573V29.4ZM64.6853 30.4V30.992H66.6853V30.4H64.6853ZM65.6853 31.992H67.3973V29.992H65.6853V31.992ZM66.3973 30.992V36H68.3973V30.992H66.3973Z" fill="white" fill-opacity="0.16"/>
<defs>
<filter id="filter0_i" x="34.5058" y="6.34009" width="20.3621" height="16.4893" filterUnits="userSpaceOnUse" color-interpolation-filters="sRGB">
<feFlood flood-opacity="0" result="BackgroundImageFix"/>
<feBlend mode="normal" in="SourceGraphic" in2="BackgroundImageFix" result="shape"/>
<feColorMatrix in="SourceAlpha" type="matrix" values="0 0 0 0 0 0 0 0 0 0 0 0 0 0 0 0 0 0 127 0" result="hardAlpha"/>
<feOffset dx="-5.80924"/>
<feGaussianBlur stdDeviation="1.93641"/>
<feComposite in2="hardAlpha" operator="arithmetic" k2="-1" k3="1"/>
<feColorMatrix type="matrix" values="0 0 0 0 0.682353 0 0 0 0 0.45098 0 0 0 0 0.980392 0 0 0 0.56 0"/>
<feBlend mode="normal" in2="shape" result="effect1_innerShadow"/>
</filter>
<linearGradient id="paint0_linear" x1="38.3787" y1="14.5847" x2="54.8679" y2="14.5847" gradientUnits="userSpaceOnUse">
<stop stop-color="#AE73FA"/>
<stop offset="1" stop-color="#AE73FA" stop-opacity="0"/>
</linearGradient>
<linearGradient id="paint1_linear" x1="54.8679" y1="14.5847" x2="38.3787" y2="14.5847" gradientUnits="userSpaceOnUse">
<stop stop-color="#AE73FA"/>
<stop offset="1" stop-color="#AE73FA" stop-opacity="0"/>
</linearGradient>
</defs>
</svg>
