<svg width="24" height="24" viewBox="0 0 24 24" fill="none" xmlns="http://www.w3.org/2000/svg">
<path d="M12 16C9.791 16 8 14.209 8 12V10C8 7.791 9.791 6 12 6C14.209 6 16 7.791 16 10V12C16 14.209 14.209 16 12 16Z" stroke="white" stroke-width="1.5" stroke-miterlimit="10" stroke-linecap="square"/>
<path d="M18.1019 21.154C17.0019 19.86 15.3319 19 13.4999 19H10.4999C8.6529 19 7.0009 19.835 5.8999 21.147" stroke="white" stroke-width="1.5" stroke-miterlimit="10"/>
<path d="M12 23C18.0751 23 23 18.0751 23 12C23 5.92487 18.0751 1 12 1C5.92487 1 1 5.92487 1 12C1 18.0751 5.92487 23 12 23Z" stroke="#31C1EE" stroke-width="1.5" stroke-miterlimit="10" stroke-linecap="square"/>
</svg>
