<svg xmlns="http://www.w3.org/2000/svg" width="36" height="36" viewBox="0 0 36 36">
  <g fill="none" fill-rule="evenodd" transform="translate(2 2)">
    <path fill="#4285F4" d="M31.36,16.3636364 C31.36,15.2290909 31.2581819,14.1381818 31.0690908,13.0909091 L16,13.0909091 L16,19.28 L24.6109092,19.28 C24.24,21.28 23.1127273,22.9745454 21.4181819,24.1090908 L21.4181819,28.1236364 L26.5890908,28.1236364 C29.6145454,25.3381819 31.36,21.2363636 31.36,16.3636364 Z"/>
    <path fill="#34A853" d="M16,32 C20.32,32 23.9418181,30.5672727 26.5890908,28.1236364 L21.4181819,24.1090908 C19.9854546,25.0690908 18.1527273,25.6363636 16,25.6363636 C11.8327273,25.6363636 8.30545454,22.8218181 7.04727273,19.04 L1.70181818,19.04 L1.70181818,23.1854546 C4.33454546,28.4145454 9.74545454,32 16,32 Z"/>
    <path fill="#FBBC05" d="M7.04727273,19.04 C6.72727273,18.08 6.54545454,17.0545455 6.54545454,16 C6.54545454,14.9454545 6.72727273,13.92 7.04727273,12.96 L7.04727273,8.81454546 L1.70181818,8.81454546 C0.618181819,10.9745455 0,13.4181818 0,16 C0,18.5818181 0.618181819,21.0254546 1.70181818,23.1854546 L7.04727273,19.04 Z"/>
    <path fill="#EA4335" d="M16,6.36363636 C18.3490908,6.36363636 20.4581819,7.17090908 22.1163636,8.75636364 L26.7054546,4.16727273 C23.9345454,1.58545455 20.3127273,0 16,0 C9.74545454,0 4.33454546,3.58545454 1.70181818,8.81454546 L7.04727273,12.96 C8.30545454,9.17818181 11.8327273,6.36363636 16,6.36363636 Z"/>
    <polygon points="0 0 32 0 32 32 0 32"/>
  </g>
</svg>
