<svg xmlns="http://www.w3.org/2000/svg" xmlns:xlink="http://www.w3.org/1999/xlink" width="36" height="36" viewBox="0 0 36 36">
  <defs>
    <path id="colored-a" d="M32.2995793,7.22731743 C32.3224309,7.54448979 32.3224309,7.86173188 32.3224309,8.17890423 C32.3224309,17.8530795 24.8985973,29 11.3299896,29 C7.14975449,29 3.26652057,27.7991665 0,25.7148811 C0.593932008,25.7828067 1.16494205,25.8054719 1.78172571,25.8054719 C5.23091887,25.8054719 8.40610315,24.6500384 10.9416521,22.6789391 C7.6979832,22.6109437 4.97969133,20.5039234 4.04312517,17.6039025 C4.50001758,17.6718281 4.95683968,17.7171584 5.43658374,17.7171584 C6.09900039,17.7171584 6.76148735,17.6264979 7.3782007,17.4679814 C3.99749218,16.7882367 1.4618729,13.8429553 1.4618729,10.2859245 L1.4618729,10.1953337 C2.44407205,10.7390877 3.58630307,11.0789252 4.79687811,11.1241857 C2.80955785,9.81009626 1.5075762,7.56715492 1.5075762,5.02963661 C1.5075762,3.67028667 1.87299169,2.42419265 2.512627,1.33668481 C6.14463338,5.77730697 11.6040688,8.67725816 17.7258505,8.99450025 C17.6116625,8.45074633 17.5431076,7.88439701 17.5431076,7.31797796 C17.5431076,3.28511893 20.8324798,0 24.9213083,0 C27.0456681,0 28.9644335,0.883591407 30.3121887,2.31093674 C31.9796562,1.99376438 33.578639,1.38201507 34.9949492,0.543753923 C34.4466502,2.24301108 33.2817081,3.67035641 31.7512803,4.57654321 C33.2360751,4.41802677 34.6751667,4.01012416 36,3.44377484 C34.9950898,4.89371557 33.7386709,6.18507011 32.2995793,7.22731743 Z"/>
  </defs>
  <use fill="#1DA1F2" transform="translate(0 4)" xlink:href="#colored-a"/>
</svg>
