<svg xmlns="http://www.w3.org/2000/svg" xmlns:xlink="http://www.w3.org/1999/xlink" width="36" height="36" viewBox="0 0 36 36">
  <defs>
    <polygon id="colored-a" points=".002 .001 36 .001 36 35.773 .002 35.773"/>
  </defs>
  <g fill="none" fill-rule="evenodd">
    <mask id="colored-b" fill="#fff">
      <use xlink:href="#colored-a"/>
    </mask>
    <path fill="#1877F2" d="M36,17.9956874 C36,8.05693636 27.9411328,0 18,0 C8.05886719,0 0,8.05693636 0,17.9956874 C0,26.9778551 6.58233984,34.4227273 15.1875,35.7727553 L15.1875,23.1975658 L10.6171875,23.1975658 L10.6171875,17.9956874 L15.1875,17.9956874 L15.1875,14.0310125 C15.1875,9.52084336 17.8747734,7.02956538 21.9863672,7.02956538 C23.9557148,7.02956538 26.015625,7.38104365 26.015625,7.38104365 L26.015625,11.8096698 L23.7458672,11.8096698 C21.5098242,11.8096698 20.8125,13.1968491 20.8125,14.6199846 L20.8125,17.9956874 L25.8046875,17.9956874 L25.0066406,23.1975658 L20.8125,23.1975658 L20.8125,35.7727553 C29.4176602,34.4227273 36,26.9778551 36,17.9956874" mask="url(#colored-b)"/>
    <path fill="#FFF" d="M24.8955897,23.2000947 L25.6919479,17.9957376 L20.7103241,17.9957376 L20.7103241,14.6184264 C20.7103241,13.1946127 21.4061727,11.8067724 23.6374841,11.8067724 L25.902439,11.8067724 L25.902439,7.37603599 C25.902439,7.37603599 23.8468877,7.02439024 21.8817073,7.02439024 C17.7788139,7.02439024 15.0972269,9.51685532 15.0972269,14.0291736 L15.0972269,17.9957376 L10.5365854,17.9957376 L10.5365854,23.2000947 L15.0972269,23.2000947 L15.0972269,35.7812763 C16.0117056,35.9250995 16.9489876,36 17.9037755,36 C18.8585633,36 19.7958453,35.9250995 20.7103241,35.7812763 L20.7103241,23.2000947 L24.8955897,23.2000947"/>
  </g>
</svg>
