<?xml version="1.0" encoding="utf-8"?>
<svg width="80" height="80" viewBox="0 0 80 80" fill="none" xmlns="http://www.w3.org/2000/svg">
  <path fill-rule="evenodd" clip-rule="evenodd" d="M 11.264 10.48 C 11.264 8.881 12.566 7.585 14.172 7.585 L 65.945 7.585 C 67.551 7.585 68.854 8.881 68.854 10.48 L 68.736 54.675 C 68.736 55.71 68.181 56.666 67.28 57.183 L 41.393 72.029 C 40.495 72.545 39.388 72.545 38.489 72.029 L 12.603 57.183 C 11.702 56.666 11.146 55.71 11.146 54.675 L 11.264 10.48 Z M 14.172 4.111 C 10.638 4.111 7.773 6.962 7.773 10.48 L 7.656 54.675 C 7.656 56.952 8.878 59.056 10.86 60.193 L 36.747 75.039 C 38.724 76.173 41.159 76.173 43.136 75.039 L 69.022 60.193 C 71.005 59.056 72.227 56.952 72.227 54.675 L 72.344 10.48 C 72.344 6.962 69.479 4.111 65.945 4.111 L 14.172 4.111 Z M 37.732 15.002 C 39.172 14.174 40.946 14.174 42.386 15.002 L 59.394 24.776 C 60.834 25.603 61.721 27.133 61.721 28.788 L 61.721 48.336 C 61.721 49.991 60.834 51.52 59.394 52.348 L 42.386 62.122 C 40.946 62.95 39.172 62.95 37.732 62.122 L 20.723 52.348 C 19.283 51.52 18.396 49.991 18.396 48.336 L 18.396 28.788 C 18.396 27.133 19.283 25.603 20.723 24.776 L 37.732 15.002 Z M 27.552 47.537 L 31.762 47.537 L 31.762 29.298 L 27.552 29.298 L 27.552 47.537 Z M 36.598 47.537 L 44.862 47.537 C 50.813 47.537 54.893 43.941 54.893 38.417 C 54.893 32.893 50.813 29.298 44.862 29.298 L 36.598 29.298 L 36.598 47.537 Z M 40.808 44.071 L 40.808 32.763 L 44.654 32.763 C 48.266 32.763 50.631 34.926 50.631 38.417 C 50.631 41.909 48.266 44.071 44.654 44.071 L 40.808 44.071 Z" fill="url(#logo-login)"/>
  <defs>
    <linearGradient id="logo-login" x1="60.5647" y1="2.53622" x2="60.5647" y2="74.3154" gradientUnits="userSpaceOnUse" gradientTransform="matrix(1, 0, 0, 1, -20.565548, 1.574988)">
      <stop stop-color="#08B6E7"/>
      <stop offset="1" stop-color="#00E7C7"/>
    </linearGradient>
  </defs>
</svg>