<?xml version="1.0" encoding="utf-8"?>
<svg width="36" height="36" viewBox="0 0 36 36" fill="none" xmlns="http://www.w3.org/2000/svg">
  <path d="M15.5874 0.222168C14.5053 0.222168 13.4675 0.652049 12.7023 1.41724L0.682861 13.4369C0.227615 13.8922 -3.72714e-06 14.4889 0 15.0855C3.72723e-06 15.6822 0.22763 16.2789 0.682874 16.7342L8.55959 24.6109V10.6662C8.55959 9.62554 9.39661 8.7819 10.4373 8.7819C14.8339 8.7819 25.5359 8.7819 26.9956 8.7819L35.5552 0.222289L15.5874 0.222168Z" fill="#4A21EF"/>
  <path d="M8.55996 27.218H25.1117C26.1524 27.218 26.996 26.3743 26.996 25.3336V11.3889L34.8727 19.2657C35.328 19.721 35.5556 20.3176 35.5556 20.9143C35.5556 21.511 35.328 22.1077 34.8727 22.5629L22.8533 34.5826C22.0881 35.3478 21.0503 35.7777 19.9682 35.7777L0.000366211 35.7776L8.55996 27.218Z" fill="#4A21EF"/>
</svg>